<svg xmlns="http://www.w3.org/2000/svg" xmlns:xlink="http://www.w3.org/1999/xlink" width="271.454" height="56.792" viewBox="0 0 271.454 56.792">
  <defs>
    <clipPath id="clip-path">
      <rect id="Rectangle_81" data-name="Rectangle 81" width="271.454" height="56.792" fill="#fff"/>
    </clipPath>
  </defs>
  <g id="Group_45" data-name="Group 45" clip-path="url(#clip-path)">
    <path id="Path_1417" data-name="Path 1417" d="M21.968,54.776c3.338-2.306,7.54-2.235,10.982-4.321a14.869,14.869,0,0,0,5.063-5.38,18.988,18.988,0,0,0,2.329-9.614c-.028-3.639-.488-7.249-.581-10.879-.075-2.973.088-6.4,1.821-8.943l-2.563-1.774a6.134,6.134,0,0,1-5.847.618,5.79,5.79,0,0,1-3.066-3.114,7.441,7.441,0,0,1-.4-4.055L21.968,1.924,14.235,7.314a7.439,7.439,0,0,1-.405,4.055,5.784,5.784,0,0,1-3.066,3.114,6.134,6.134,0,0,1-5.847-.618L2.354,15.64c1.732,2.541,1.9,5.97,1.82,8.943-.092,3.63-.553,7.239-.58,10.881a18.989,18.989,0,0,0,2.329,9.611,14.861,14.861,0,0,0,5.064,5.38c3.441,2.087,7.644,2.015,10.981,4.321m0,2.016c-3.12-2.881-7.78-2.55-11.8-4.988S1.921,43.82,2.017,35.447C2.078,27.263,4.21,18.985,0,15.349L4.988,11.9c3.386,3.354,9.157.781,7.483-5.276L21.968,0l9.5,6.62c-1.674,6.057,4.1,8.63,7.482,5.276l4.989,3.454c-4.21,3.635-2.078,11.913-2.017,20.1.095,8.373-4.133,13.919-8.152,16.356s-8.679,2.107-11.8,4.988" fill="#fff"/>
    <path id="Path_1418" data-name="Path 1418" d="M31.278,170.772a13.333,13.333,0,0,0,1.975,6.438,17.533,17.533,0,0,0,5.655,5.469l1.511-3.34a13.935,13.935,0,0,1-4.076-4.463,10.04,10.04,0,0,1-1.221-4.476l-1.585,1.672a.2.2,0,0,1-.262.03h0Zm28.176,6.677a15.421,15.421,0,0,0,2.083-6.333l-1.908,1.137a.2.2,0,0,1-.264-.026L57.779,170.6a9.073,9.073,0,0,1-1.211,4.291,14.364,14.364,0,0,1-4.053,4.255l1.727,3.331a15.094,15.094,0,0,0,5.211-5.029m2.535-6.7a16.026,16.026,0,0,1-2.185,6.912,15.5,15.5,0,0,1-5.381,5.185l.624,1.208.007.015a.206.206,0,0,1-.111.268c-5.5,2.305-11,3.256-16.516-.028a.2.2,0,0,1-.1-.267l.431-.973a17.977,17.977,0,0,1-5.855-5.646,13.8,13.8,0,0,1-2.051-7.021.208.208,0,0,1,.033-.139.2.2,0,0,1,.285-.057l2.186,1.457,1.811-1.91a.208.208,0,0,1,.149-.064.205.205,0,0,1,.2.206,9.729,9.729,0,0,0,1.18,4.783,13.656,13.656,0,0,0,4.085,4.422.206.206,0,0,1,.074.255l-.465,1.027a14.73,14.73,0,0,0,6.273,1.45,13.184,13.184,0,0,0,5.992-1.518l-.589-1.136a.2.2,0,0,1,.071-.266,14.134,14.134,0,0,0,4.072-4.226,8.8,8.8,0,0,0,1.165-4.582.2.2,0,0,1,.352-.143h0l1.816,1.863,2.134-1.271a.206.206,0,0,1,.281.071.208.208,0,0,1,.027.124Zm-7.409,13.3-1.738-3.363a13.586,13.586,0,0,1-6.173,1.561,15.124,15.124,0,0,1-6.439-1.484l-1.452,3.283c5.257,3.058,10.527,2.181,15.8,0" transform="translate(-24.447 -134.464)" fill="#fff"/>
    <path id="Path_1419" data-name="Path 1419" d="M50.391,89.253a.2.2,0,1,1,.323.252l-.748.955a.2.2,0,1,1-.323-.252Zm-3.86-.033a.2.2,0,1,1,.313-.263l.665.79a.2.2,0,0,1-.313.263Zm3.324-.6a.205.205,0,1,1,.315.264L49.3,89.926a.205.205,0,1,1-.315-.264Zm-3.481,6.259h3.69v.628h-3.69Zm4.075-3.651H50.9V92.1H45.573v-.8a3.614,3.614,0,0,0-.543-.782c-.683-.813-1.428-1.7-.916-5.519a.2.2,0,0,1,.377-.1l1.066,1.654q-.038-.362-.052-.727a11.064,11.064,0,0,1,.063-1.671h0a.2.2,0,0,1,.4-.047,5.859,5.859,0,0,0,.6,1.224,4.939,4.939,0,0,0,.671.821,4.507,4.507,0,0,0,.542-1.087,5.485,5.485,0,0,0,.281-1.522.206.206,0,0,1,.343-.142,3.132,3.132,0,0,1,.8,1.155,3.588,3.588,0,0,1,.2.708c.169-.341.34-.659.51-.977.131-.245.263-.491.414-.787h0a.2.2,0,0,1,.387.088l.068,2.658L51.8,84.909a.205.205,0,0,1,.375.092c.353,3.363-.19,4.063-.95,5.034a5.57,5.57,0,0,0-.773,1.2m.413,2.246c0,.442-1.183.8-2.643.8s-2.643-.358-2.643-.8V92.6H50.9ZM50,91.232a5.585,5.585,0,0,1,.9-1.448c.668-.854,1.121-1.439.912-4.216l-1.054,1.4a.2.2,0,0,1-.286.04.2.2,0,0,1-.081-.163l-.063-2.45-.05.095c-.273.51-.547,1.021-.824,1.648a.205.205,0,0,1-.393-.083,3.564,3.564,0,0,0-.234-1.336,2.718,2.718,0,0,0-.392-.679,5.675,5.675,0,0,1-.263,1.168,4.921,4.921,0,0,1-.737,1.387.205.205,0,0,1-.287.04.153.153,0,0,1-.02-.018,5.337,5.337,0,0,1-.9-1.051,5.63,5.63,0,0,1-.31-.534q-.015.394,0,.787a10.824,10.824,0,0,0,.184,1.611.206.206,0,0,1-.381.139L44.453,85.6c-.35,3.177.3,3.947.891,4.656a3.649,3.649,0,0,1,.646.973h1a.2.2,0,0,1-.09-.072l-1.247-1.745a.205.205,0,0,1,.334-.238l1.246,1.746a.2.2,0,0,1-.048.285.209.209,0,0,1-.043.024Zm7.642.926a.205.205,0,1,1-.146.383l-1.765-.671a.205.205,0,1,1,.146-.384Zm.256-2.709a.205.205,0,0,1-.031.409l-1.782-.135a.205.205,0,1,1,.03-.41Zm-2.762,6.53a.2.2,0,1,1-.3.281L53.3,94.616a.2.2,0,1,1,.3-.28Zm2.625-5.767a.205.205,0,0,1-.041.408l-1.9-.2a.2.2,0,1,1,.042-.408Zm-3.3,6.4a.205.205,0,0,1-.336.236L52.837,95a.205.205,0,0,1,.336-.236Zm2.236-2.72a.205.205,0,0,1-.247.328L54.9,93.041a.205.205,0,0,1,.247-.328ZM53.782,97a.2.2,0,1,1-.335.236l-1.294-1.84a.205.205,0,1,1,.336-.236Zm3.936-8.668a.2.2,0,1,1,0,.41l-1.868-.026a.2.2,0,0,1,0-.41Zm-4.925,8.98a.206.206,0,1,1-.37.18l-.884-1.817a.205.205,0,0,1,.369-.179Zm4.385-4.295a.205.205,0,0,1-.178.37l-1.754-.846a.205.205,0,1,1,.179-.369Zm-.953,1.653a.205.205,0,1,1-.265.313l-1.554-1.318a.205.205,0,1,1,.265-.313Zm-.545.631a.205.205,0,0,1-.3.28l-1.54-1.643a.205.205,0,0,1,.3-.281Zm-4.591,2.6a.2.2,0,1,1-.395.109l-.5-1.794a.2.2,0,0,1,.4-.11Zm6.59-6.868a.205.205,0,1,1-.042.408l-1.9-.2a.2.2,0,0,1,.042-.408ZM39.125,92.082a.2.2,0,0,1-.126-.39l1.765-.57a.2.2,0,1,1,.126.39Zm-.446-3.387a.205.205,0,0,1,.024-.41l1.782.11a.205.205,0,1,1-.023.409Zm.072.684a.2.2,0,0,1-.006-.41l1.783-.032a.2.2,0,0,1,.006.41Zm3.039,6.571a.2.2,0,1,1-.29-.289l1.54-1.554a.2.2,0,0,1,.291.289Zm-2.889-5.8a.205.205,0,1,1-.02-.41l1.9-.089a.2.2,0,0,1,.02.409Zm3.6,6.426a.205.205,0,0,1-.331-.242l1.293-1.766a.205.205,0,0,1,.331.242Zm-2.328-2.758a.2.2,0,0,1-.234-.336L41.5,92.393a.2.2,0,0,1,.234.336ZM43.186,97a.205.205,0,0,1-.331-.242l1.293-1.766a.205.205,0,1,1,.331.242ZM38.91,87.953a.2.2,0,0,1,.018-.41l1.868.082a.2.2,0,0,1-.018.409Zm5.3,9.36a.2.2,0,0,1-.366-.183l.884-1.766a.2.2,0,1,1,.366.183Zm-4.584-4.36a.2.2,0,1,1-.16-.377l1.754-.745a.205.205,0,1,1,.161.378Zm1.043,1.654a.2.2,0,0,1-.254-.321l1.554-1.229a.2.2,0,1,1,.254.321Zm.581.631a.205.205,0,0,1-.29-.29l1.54-1.554a.205.205,0,1,1,.291.289Zm-2.263-4.263a.205.205,0,0,1-.019-.41l1.9-.089a.205.205,0,0,1,.02.41ZM44.893,97.6a.2.2,0,0,1-.366-.182l.885-1.766a.2.2,0,1,1,.366.182Zm7.216-.043a.205.205,0,1,1-.369.18l-.885-1.816a.206.206,0,1,1,.37-.18Zm-3.075,6.9a.25.25,0,0,0-.055.138.569.569,0,0,0,0,.186.608.608,0,0,0,.062.189.425.425,0,0,0,.466.221.2.2,0,0,1,.082.006l.095-.006a.218.218,0,0,0,.1-.171.594.594,0,0,0-.016-.242.619.619,0,0,0-.106-.224.269.269,0,0,0-.216-.12l-.015,0c-.135.009-.268.016-.4.022m-.2-1.046a.191.191,0,0,1-.039.009c-.045,0-.079.06-.092.131h0a.43.43,0,0,0,0,.152.459.459,0,0,0,.054.152.371.371,0,0,0,.285.18.174.174,0,0,1,.041,0h.01a.2.2,0,0,1,.085-.011l.051,0h0a.119.119,0,0,1,.028,0h0a.356.356,0,0,0,.341-.177.44.44,0,0,0,.044-.2.567.567,0,0,0-.037-.208c-.026-.07-.056-.121-.076-.123-.243.04-.476.068-.7.087m.747-1.141c-.114.008-.227.015-.339.019h-.02l-.062,0a.253.253,0,0,0-.081.108.568.568,0,0,0-.054.228.394.394,0,0,0,.041.2h0a.2.2,0,0,0,.132.1.2.2,0,0,1,.078,0,.409.409,0,0,0,.114-.009h0l.037-.006.011,0a.283.283,0,0,0,.234-.165.437.437,0,0,0,.034-.175.481.481,0,0,0-.037-.178.222.222,0,0,0-.092-.116m-3.916-.982a8.492,8.492,0,0,0,3.43.6.419.419,0,0,1,.135,0c.083,0,.168-.008.253-.013a3.7,3.7,0,0,0-.444-.472,2.331,2.331,0,0,0-1.8-.515c-.4.011-.8-.013-1.29-.042l-.256-.015a.553.553,0,0,0-.064.212.77.77,0,0,0,.033.254m.023,1.136a5.846,5.846,0,0,0,1.647.536,5.947,5.947,0,0,0,1.364.05.806.806,0,0,1-.083-.394.986.986,0,0,1,.062-.319,8.707,8.707,0,0,1-1.071-.079,9.146,9.146,0,0,1-2-.513,1.29,1.29,0,0,0-.018.31,1.053,1.053,0,0,0,.1.409m.233.988a4.229,4.229,0,0,0,1.58.566,6.658,6.658,0,0,0,.9.076.853.853,0,0,1-.1-.287.841.841,0,0,1,0-.3l.007-.034a5.861,5.861,0,0,1-2.555-.532,1.139,1.139,0,0,0,.02.172.824.824,0,0,0,.149.335m.31,1.311.022.007a5.736,5.736,0,0,0,1.624.423q.4.049.832.058l-.028-.049a1.051,1.051,0,0,1-.1-.316,1.01,1.01,0,0,1,0-.316c0-.021.007-.042.012-.062a7.312,7.312,0,0,1-1.151-.083,4.714,4.714,0,0,1-1.53-.507c-.087.547.122.716.325.847m2.863,1.4a.914.914,0,0,1-.16-.262.691.691,0,0,1-.05-.235,9.04,9.04,0,0,1-1.057-.063,6.441,6.441,0,0,1-1.474-.348.577.577,0,0,0,.058.479,1.278,1.278,0,0,0,.479.44,1.879,1.879,0,0,0,.185.091,5.178,5.178,0,0,0,2.018-.1m1.06-.18c0-.007,0-.013,0-.02a.439.439,0,0,0-.091-.2.36.36,0,0,0-.155-.119.158.158,0,0,0-.062-.009h0l-.015,0c-.18.013-.358.022-.532.027a.285.285,0,0,0,.022.091.5.5,0,0,0,.095.15.417.417,0,0,0,.35.148l.392-.067m-.868,3.121a1.609,1.609,0,0,1,.763,1.327,2.032,2.032,0,0,1-4.007,0,1.71,1.71,0,0,1,1.2-1.549l.032-2.159a1.249,1.249,0,0,1-.356-.082,2.131,2.131,0,0,1-.226-.111,1.682,1.682,0,0,1-.633-.59.968.968,0,0,1-.08-.852c-.332-.214-.667-.5-.432-1.456a1.226,1.226,0,0,1-.177-.434,1.962,1.962,0,0,1-.022-.5,1.439,1.439,0,0,1-.165-.62,1.5,1.5,0,0,1,.092-.628,1.161,1.161,0,0,1-.051-.4.877.877,0,0,1,.078-.3,1.551,1.551,0,0,1-.581-.869,1.525,1.525,0,0,1-.054-.474.725.725,0,0,1,.133-.407.392.392,0,0,1,.318-.157h.011c.537.013,1.078.02,1.614.024l.029-.006a.316.316,0,0,1,.131.008l.165,0,.321,0,.029-1.947a2.605,2.605,0,0,1-.374-.1l-.16,1.273a.206.206,0,0,1-.408-.05l.178-1.417a.669.669,0,0,1-.251-.288l-.462,1.643a.205.205,0,1,1-.395-.111l.5-1.766a.205.205,0,0,1,.4.1h3.621a.445.445,0,0,1-.139.3l.236,1.553a.205.205,0,0,1-.406.062l-.207-1.365a2.641,2.641,0,0,1-.617.183l.058,1.953c.417.011.82.026,1.2.05.932.058,2.851,1.174,4.467,3.289a13.433,13.433,0,0,1,2.528,5.782.2.2,0,0,1-.4.072,13.016,13.016,0,0,0-2.45-5.605c-1.541-2.015-3.319-3.077-4.165-3.129-.918-.057-1.94-.067-2.989-.076a1.3,1.3,0,0,1,.012.262,1.581,1.581,0,0,1-.1.479,1.386,1.386,0,0,1-.31.493c.157,0,.307.006.456,0a2.685,2.685,0,0,1,2.076.616,4.691,4.691,0,0,1,.68.767.206.206,0,0,1,.114.159,21.421,21.421,0,0,1,1.257,2.147l0,0a4.765,4.765,0,0,0,.415.657,1.874,1.874,0,0,0,.546.507.205.205,0,0,1-.2.36,2.281,2.281,0,0,1-.673-.616,5.292,5.292,0,0,1-.449-.71L51,104.346c-.337-.638-.632-1.165-.9-1.6a.762.762,0,0,1-.05.153.692.692,0,0,1-.15.217.779.779,0,0,1,.094.179.993.993,0,0,1,.062.357.859.859,0,0,1-.086.377h0a.752.752,0,0,1-.095.145.807.807,0,0,1,.114.121,1.039,1.039,0,0,1,.179.371,1.024,1.024,0,0,1,.023.407.773.773,0,0,1-.049.175.819.819,0,0,1,.241.208.849.849,0,0,1,.174.4.676.676,0,0,1,.007.1,9.126,9.126,0,0,1,2.223.874,13.247,13.247,0,0,1,2.386,1.694.2.2,0,0,1-.269.308,13.4,13.4,0,0,0-1.952-1.437l.464,5.237a.2.2,0,0,1-.408.035l-.489-5.517a8.562,8.562,0,0,0-2.191-.827c-.134.022-.3.049-.472.08l-.022,0-.015,0h0l-.027,0c-.19.033-.385.067-.581.1Zm-14.3-5.563a.2.2,0,0,0,.2.2.211.211,0,0,0,.206-.209v-1.006l1.253-1.233a.2.2,0,1,0-.284-.289l-.969.953v-.518l1.247-1.226a.2.2,0,1,0-.284-.29l-.963.947v-.753l1.239-1.219a.2.2,0,1,0-.284-.289l-.956.939v-.519l1.233-1.212a.2.2,0,1,0-.284-.289l-.949.933v-.531l1.212-.975a.207.207,0,0,0,.036-.289.2.2,0,0,0-.289-.028l-.959.771v-.594L36.6,95.8a.207.207,0,0,0,.035-.289.2.2,0,0,0-.288-.029l-.954.766v-.659l1.233-.992a.2.2,0,1,0-.253-.318l-.98.789v-.718l1.193-.968a.206.206,0,0,0,.034-.289.2.2,0,0,0-.289-.027l-.938.762v-.536l1.191-1.013a.2.2,0,1,0-.262-.31l-.929.791v-.54l1.183-1.007a.2.2,0,1,0-.261-.31l-.923.785v-.062a.2.2,0,0,0-.049-.132h0l-.762-.876a.2.2,0,0,0-.29-.017.207.207,0,0,0-.023.289l.714.821v.036l-.862-.635a.208.208,0,0,0-.288.046.2.2,0,0,0,.04.286l1.111.818v.546l-.857-.63a.206.206,0,0,0-.287.046.2.2,0,0,0,.039.286l1.1.813v.469l-1.02-.782a.206.206,0,0,0-.29.015.2.2,0,0,0,.009.29l1.3,1.04v.677l-1.3-1.13a.208.208,0,0,0-.274.311l1.572,1.369v.676l-1.327-1.154a.207.207,0,0,0-.273.311l1.6,1.392v.555l-1.32-1.149a.207.207,0,0,0-.29.023.2.2,0,0,0,.016.289l1.594,1.387v.531L33.544,97.32a.207.207,0,0,0-.289.037.2.2,0,0,0,.031.287l1.7,1.328v.549L33.551,98.4a.206.206,0,0,0-.288.037.2.2,0,0,0,.031.288l1.689,1.323v.784L33.47,99.656a.207.207,0,0,0-.288.039.2.2,0,0,0,.032.287l1.769,1.376v.55l-1.507-1.171a.207.207,0,0,0-.255.326l1.763,1.371Zm26.572.171a.2.2,0,0,1-.41-.008l.023-1.006-1.225-1.233a.2.2,0,1,1,.29-.289l.948.953.012-.519-1.22-1.225a.2.2,0,1,1,.29-.29l.942.947.017-.754-1.212-1.218a.205.205,0,1,1,.29-.29l.934.94.012-.519-1.206-1.212a.2.2,0,1,1,.29-.289l.928.933.012-.532-1.191-.974a.206.206,0,0,1,.26-.319l.942.772.014-.594-1.184-.97a.205.205,0,1,1,.259-.318l.936.766.015-.658-1.211-.992a.205.205,0,0,1,.259-.318l.963.789.016-.718-1.171-.968a.205.205,0,0,1,.262-.316l.921.762.012-.536-1.167-1.013a.205.205,0,1,1,.268-.31l.911.791.013-.54-1.161-1.007a.2.2,0,1,1,.268-.31l.9.785V91.8a.2.2,0,0,1,.052-.132h0l.781-.875a.205.205,0,0,1,.307.272l-.732.82v.037l.877-.635a.205.205,0,0,1,.241.332l-1.129.818-.013.547.87-.63a.205.205,0,1,1,.241.333l-1.122.813-.011.47,1.046-.775a.205.205,0,0,1,.274.3L61.764,94.53l-.015.677,1.324-1.13a.205.205,0,0,1,.267.311l-1.6,1.369-.015.676,1.352-1.155a.205.205,0,0,1,.267.312l-1.632,1.392-.013.554,1.346-1.148a.2.2,0,1,1,.266.311l-1.624,1.387-.012.531,1.463-1.126a.2.2,0,1,1,.251.324l-1.726,1.327-.012.55L63.1,98.571a.2.2,0,0,1,.251.324l-1.719,1.323-.018.783,1.539-1.176a.205.205,0,0,1,.249.326l-1.8,1.375-.013.551,1.533-1.171a.205.205,0,1,1,.249.326L61.579,102.6ZM45.6,100.4l.179.01H45.8a1.124,1.124,0,0,0,.233-.014.856.856,0,0,0,.668-.57,1.2,1.2,0,0,0,.075-.356.719.719,0,0,0-.024-.245c-.546,0-1.1-.011-1.636-.025,0,0,0,0,0,0a.34.34,0,0,0-.045.176A1.206,1.206,0,0,0,45.6,100.4" transform="translate(-26.258 -66.052)" fill="#fff"/>
    <path id="Path_1420" data-name="Path 1420" d="M32.739,57.061l1.89,3.007a6.87,6.87,0,0,1,4.635-1.907,7.026,7.026,0,0,1,4.975,2.128l2.107-3.249c-.116-.108-.234-.211-.357-.308a10.712,10.712,0,0,0-7.095-1.856c-2.543.131-4.905.911-6.037,2.057-.041.041-.081.084-.119.127M55.1,63.768l1.443-1.451a20.123,20.123,0,0,1-5.123-1.312,25.505,25.505,0,0,1-5.286-2.867l-2.153,3.367A33.523,33.523,0,0,0,49.9,64.429a32.373,32.373,0,0,0,5.829,1.55l-.671-1.992a.2.2,0,0,1,.045-.219m2.029-1.458L55.48,63.967l.743,2.206a.2.2,0,0,1-.129.259.208.208,0,0,1-.111.006,33.129,33.129,0,0,1-6.229-1.624,34.177,34.177,0,0,1-6.165-3.069.2.2,0,0,1-.066-.282l.011-.015.5-.786a6.654,6.654,0,0,0-4.768-2.092,6.475,6.475,0,0,0-4.432,1.868l.69,1.079.006.01a.205.205,0,0,1-.066.283,39.06,39.06,0,0,1-6.407,3.236,32.242,32.242,0,0,1-6.485,1.8.205.205,0,0,1-.217-.3l1.11-2.046L22.3,61.982a.2.2,0,0,1-.026-.085.205.205,0,0,1,.187-.222,19.866,19.866,0,0,0,5.384-1.217,21.827,21.827,0,0,0,4.9-2.63l-.425-.676a.206.206,0,0,1,.013-.237,3.3,3.3,0,0,1,.241-.27c1.2-1.217,3.669-2.044,6.308-2.179a11.116,11.116,0,0,1,7.371,1.945,6.346,6.346,0,0,1,.509.451.2.2,0,0,1,.027.259l-.432.667a25.176,25.176,0,0,0,5.22,2.835,19.427,19.427,0,0,0,5.441,1.327.206.206,0,0,1,.188.221.209.209,0,0,1-.07.139m-34.346-.252,1.1,2.361a.209.209,0,0,1-.009.189l-.956,1.761a31.913,31.913,0,0,0,5.992-1.7,38.488,38.488,0,0,0,6.163-3.094L32.92,58.2a22.2,22.2,0,0,1-4.935,2.639,20.27,20.27,0,0,1-5.2,1.216" transform="translate(-17.646 -43.144)" fill="#fff"/>
    <path id="Path_1421" data-name="Path 1421" d="M45.232,196.92l1.157-1.555.314.234-1.156,1.555Zm-1.467-1.259,1.313-1.426.289.265-.517.561.564.52.518-.561.288.265-1.314,1.426-.288-.265.574-.624-.564-.52-.574.624Zm-.852-1.095,1.486-1.22.249.3-1.234,1.013.617.753-.252.208Zm-.989-1.5,1.655-1.01.749,1.228-.281.17-.544-.893-.367.224.507.831-.278.169-.507-.83-.451.274.564.925-.279.17Zm.812-2.044-1.188.489.112.27a1.062,1.062,0,0,0,.107.212.368.368,0,0,0,.135.115.418.418,0,0,0,.213.023,1.29,1.29,0,0,0,.343-.1,1.169,1.169,0,0,0,.3-.169.444.444,0,0,0,.131-.174.375.375,0,0,0,.015-.2,1.735,1.735,0,0,0-.105-.3Zm.154-.487.273.662a1.386,1.386,0,0,1,.106.355.646.646,0,0,1-.054.338.839.839,0,0,1-.22.291,1.419,1.419,0,0,1-.4.233,1.272,1.272,0,0,1-.4.1.849.849,0,0,1-.4-.062.689.689,0,0,1-.248-.2,1.191,1.191,0,0,1-.169-.3l-.281-.681Z" transform="translate(-32.565 -150.98)" fill="#fff"/>
    <path id="Path_1422" data-name="Path 1422" d="M93.471,230.816l.4-.028a.854.854,0,0,1-.1.547.916.916,0,0,1-1.111.324,1.013,1.013,0,0,1-.5-.58,1.065,1.065,0,0,1-.045-.793.858.858,0,0,1,.513-.492.807.807,0,0,1,.616-.018.765.765,0,0,1,.317.259l-.327.23a.409.409,0,0,0-.222-.17.419.419,0,0,0-.279.017.442.442,0,0,0-.268.273.76.76,0,0,0,.06.516.81.81,0,0,0,.317.439.429.429,0,0,0,.378.019.391.391,0,0,0,.213-.192.583.583,0,0,0,.036-.35m-1.61,1.31-.557-1.861.376-.113.557,1.862Zm-1.391.4-.357-1.894.386-.073.3,1.572.958-.181.061.322Zm-1.358-.666.024.519.362-.017a1.641,1.641,0,0,0,.268-.024.229.229,0,0,0,.186-.251.251.251,0,0,0-.049-.146.242.242,0,0,0-.126-.083,1.381,1.381,0,0,0-.349-.011Zm-.036-.771.02.448.257-.012c.152-.007.247-.014.284-.019a.264.264,0,0,0,.156-.077.206.206,0,0,0,.05-.154.215.215,0,0,0-.057-.144.225.225,0,0,0-.151-.061c-.039,0-.151,0-.335.009Zm-.408-.3.776-.037a2.274,2.274,0,0,1,.345,0,.51.51,0,0,1,.207.071.5.5,0,0,1,.156.155.438.438,0,0,1,.07.224.461.461,0,0,1-.253.434.515.515,0,0,1,.28.163.469.469,0,0,1,.109.289.576.576,0,0,1-.05.26.515.515,0,0,1-.159.208.565.565,0,0,1-.259.1c-.064.01-.222.022-.472.035l-.66.031Zm-1.657-.217.389.044-.116,1.045a2.177,2.177,0,0,0-.021.324.314.314,0,0,0,.1.2.417.417,0,0,0,.25.1.4.4,0,0,0,.258-.04.269.269,0,0,0,.12-.156,2.215,2.215,0,0,0,.053-.326l.119-1.068.39.043-.113,1.015a2.672,2.672,0,0,1-.086.488.541.541,0,0,1-.144.229.589.589,0,0,1-.245.132.984.984,0,0,1-.378.017,1.076,1.076,0,0,1-.413-.11.6.6,0,0,1-.207-.191.545.545,0,0,1-.086-.226,2.409,2.409,0,0,1,.016-.495Zm-1.1.008-.165.526.205.063a1,1,0,0,0,.3.064.258.258,0,0,0,.145-.054.262.262,0,0,0,.088-.131.252.252,0,0,0-.007-.186.272.272,0,0,0-.125-.129,1.907,1.907,0,0,0-.265-.1ZM85.058,232l.579-1.854.6.187a2.335,2.335,0,0,1,.436.167.513.513,0,0,1,.211.265.6.6,0,0,1-.006.394.627.627,0,0,1-.152.268.53.53,0,0,1-.215.134.563.563,0,0,1-.221.028,2.216,2.216,0,0,1-.4-.095l-.244-.076-.219.7Z" transform="translate(-67.4 -182.032)" fill="#fff"/>
    <path id="Path_1423" data-name="Path 1423" d="M147.77,183.321l-1.885-.334.068-.384,1.565.277.169-.954.32.057Zm-1.441,1.418a.724.724,0,0,0,.519.01.52.52,0,0,0,.239-.729.737.737,0,0,0-.432-.3.724.724,0,0,0-.516-.015.54.54,0,0,0-.238.738.727.727,0,0,0,.428.294m-.112.386a1.234,1.234,0,0,1-.443-.238.919.919,0,0,1-.2-.253.76.76,0,0,1-.088-.291,1.061,1.061,0,0,1,.056-.419.907.907,0,0,1,.464-.567,1.183,1.183,0,0,1,1.4.453,1.014,1.014,0,0,1-.422,1.3,1,1,0,0,1-.766.018m-.715,1.352a.724.724,0,0,0,.512.092.5.5,0,0,0,.325-.266.489.489,0,0,0,.024-.417.738.738,0,0,0-.38-.362.728.728,0,0,0-.508-.1.539.539,0,0,0-.35.692.729.729,0,0,0,.377.357m-.171.363a1.232,1.232,0,0,1-.4-.3.938.938,0,0,1-.154-.28.767.767,0,0,1-.04-.3,1.048,1.048,0,0,1,.121-.405.908.908,0,0,1,.546-.488,1.184,1.184,0,0,1,1.308.667,1.016,1.016,0,0,1-.619,1.215.993.993,0,0,1-.76-.1m-.291,1.914-1.52-1.19.241-.307.6.468.471-.6-.6-.469.24-.307,1.52,1.19-.241.307-.664-.521-.471.6.665.52Zm-1,.012.354-.176a.848.848,0,0,1,.118.538.912.912,0,0,1-.9.716,1.011,1.011,0,0,1-.677-.345,1.059,1.059,0,0,1-.34-.712.857.857,0,0,1,.286-.646.805.805,0,0,1,.559-.248.762.762,0,0,1,.389.118l-.214.335a.4.4,0,0,0-.268-.072.413.413,0,0,0-.25.121.442.442,0,0,0-.144.353.757.757,0,0,0,.251.452.8.8,0,0,0,.456.284.424.424,0,0,0,.354-.125.391.391,0,0,0,.124-.257.579.579,0,0,0-.1-.335m-2.3,1.966.285-.252a.462.462,0,0,0,.277.146.43.43,0,0,0,.281-.093.436.436,0,0,0,.182-.231.24.24,0,0,0-.032-.208.177.177,0,0,0-.1-.071.307.307,0,0,0-.162.016c-.046.013-.147.052-.3.114a1.044,1.044,0,0,1-.468.1.506.506,0,0,1-.466-.483.529.529,0,0,1,.08-.3.977.977,0,0,1,.268-.277.817.817,0,0,1,.536-.192.565.565,0,0,1,.406.231l-.306.242a.333.333,0,0,0-.212-.11.4.4,0,0,0-.238.092.441.441,0,0,0-.174.213.139.139,0,0,0,.02.133.147.147,0,0,0,.116.061,1,1,0,0,0,.366-.105,1.881,1.881,0,0,1,.422-.135.544.544,0,0,1,.289.034.609.609,0,0,1,.35.509.551.551,0,0,1-.085.327,1.083,1.083,0,0,1-.3.3.835.835,0,0,1-.555.193.73.73,0,0,1-.478-.262" transform="translate(-111.915 -144.159)" fill="#fff"/>
    <path id="Path_1424" data-name="Path 1424" d="M40.013,66.238,38.8,64.873l1.033-.922.205.231-.752.672.268.3.7-.624.2.229-.7.624.33.372.778-.695.2.23Zm-.9-.142.367-.1a.832.832,0,0,1-.98,1.043.933.933,0,0,1-.565-.444,1,1,0,0,1-.178-.73.843.843,0,0,1,.4-.557.775.775,0,0,1,.573-.135.7.7,0,0,1,.341.18l-.267.277a.378.378,0,0,0-.236-.114.4.4,0,0,0-.258.069.431.431,0,0,0-.2.306.708.708,0,0,0,.144.47.746.746,0,0,0,.371.347.41.41,0,0,0,.356-.055.389.389,0,0,0,.167-.22.551.551,0,0,0-.027-.333m-1.273,1.556L37,66.027l.332-.177.838,1.626Zm-1.144.507L35.42,66.7l.378-.154.926,1.087L36.656,66.2l.369-.15.045,1.96Zm-2.072-.5.27-.064a1.46,1.46,0,0,0,.323-.1.207.207,0,0,0,.086-.1.241.241,0,0,0,.009-.144.21.21,0,0,0-.08-.135.223.223,0,0,0-.152-.038c-.031,0-.12.022-.268.057l-.285.066Zm-.144,1.123-.383-1.8.768-.181a1.33,1.33,0,0,1,.431-.05.409.409,0,0,1,.247.122.511.511,0,0,1,.14.264.5.5,0,0,1-.049.362.605.605,0,0,1-.322.251.823.823,0,0,1,.228.1,2.044,2.044,0,0,1,.27.242l.295.3-.435.1-.348-.329a2.565,2.565,0,0,0-.248-.219.272.272,0,0,0-.126-.049.6.6,0,0,0-.188.023l-.074.018.16.75Zm-1.727.18-.129-1.839L33.991,67l.022.311-.994.093.028.407.925-.086.022.31-.925.086.035.5,1.028-.1.022.31ZM31,68.282l.364-.019a.427.427,0,0,0,.114.274.39.39,0,0,0,.263.1.422.422,0,0,0,.277-.063.236.236,0,0,0,.1-.174.163.163,0,0,0-.031-.113.292.292,0,0,0-.128-.086c-.042-.018-.14-.049-.293-.095a.987.987,0,0,1-.406-.2.473.473,0,0,1-.144-.379.493.493,0,0,1,.1-.259.525.525,0,0,1,.243-.177.955.955,0,0,1,.367-.047.767.767,0,0,1,.512.177.528.528,0,0,1,.156.415h-.373a.31.31,0,0,0-.088-.209.364.364,0,0,0-.231-.074.43.43,0,0,0-.259.055.141.141,0,0,0-.02.226.95.95,0,0,0,.333.14,1.781,1.781,0,0,1,.392.151.506.506,0,0,1,.191.2.539.539,0,0,1,.053.3.561.561,0,0,1-.371.487,1.062,1.062,0,0,1-.405.049.785.785,0,0,1-.525-.186A.687.687,0,0,1,31,68.282m18.74-5.4.975-1.845,1.085.525-.165.312-.791-.382-.216.409.735.355-.164.311-.735-.355-.265.5.818.395-.165.311Zm-.831-1.525.234.073a1.152,1.152,0,0,0,.28.066.194.194,0,0,0,.123-.048.326.326,0,0,0,.093-.144.294.294,0,0,0,.019-.161.182.182,0,0,0-.07-.109,1.247,1.247,0,0,0-.251-.094l-.247-.078Zm-.727,1.025.717-1.946.662.208a.921.921,0,0,1,.344.167.4.4,0,0,1,.112.237.763.763,0,0,1-.286.667.531.531,0,0,1-.368.08.772.772,0,0,1,.106.215,2.222,2.222,0,0,1,.064.373l.05.439-.375-.118-.072-.5a2.8,2.8,0,0,0-.062-.34.246.246,0,0,0-.064-.109.443.443,0,0,0-.15-.071l-.065-.02-.3.813Zm-1.346-1.242a.844.844,0,0,0,.052.536.369.369,0,0,0,.3.2.42.42,0,0,0,.351-.145.949.949,0,0,0,.208-.521.857.857,0,0,0-.046-.533.364.364,0,0,0-.3-.2.424.424,0,0,0-.356.14.937.937,0,0,0-.207.517m-.345-.017a1.52,1.52,0,0,1,.2-.587.889.889,0,0,1,.33-.325.765.765,0,0,1,.432-.077.661.661,0,0,1,.535.323,1.162,1.162,0,0,1,.105.8,1.3,1.3,0,0,1-.355.774.736.736,0,0,1-.6.2.654.654,0,0,1-.527-.3,1.165,1.165,0,0,1-.117-.807M44.98,62.128l.059-2.035,1.141-.039-.01.345-.806.027-.014.481.7-.023-.01.345-.7.023-.025.864Zm-1.536.219-.224-2,1.229-.214.038.339-.9.156.05.444.832-.144.037.337-.832.145.062.546.925-.161.038.338Zm-1.353-.433.135.517.3-.1a1.017,1.017,0,0,0,.249-.1.214.214,0,0,0,.075-.111.308.308,0,0,0,0-.165.273.273,0,0,0-.082-.143.2.2,0,0,0-.131-.05,1.128,1.128,0,0,0-.283.065Zm-.2-.77.116.448.216-.068c.128-.042.208-.069.237-.083a.23.23,0,0,0,.113-.111.253.253,0,0,0,.007-.168.229.229,0,0,0-.075-.127.154.154,0,0,0-.11-.037,2.147,2.147,0,0,0-.316.086Zm-.409-.219.646-.206a1.057,1.057,0,0,1,.384-.071.4.4,0,0,1,.225.11.5.5,0,0,1,.144.248.54.54,0,0,1,0,.273.462.462,0,0,1-.12.219.421.421,0,0,1,.269.1.5.5,0,0,1,.158.27.642.642,0,0,1-.01.39.48.48,0,0,1-.2.258,2.83,2.83,0,0,1-.449.169l-.55.175Zm16.925,7.529.6-1.749,1.2.408-.1.3-.846-.288-.14.414.73.248-.1.3-.73-.249-.253.743Zm-1.37-.528.662-1.708.348.135L57.5,67.771l.864.335-.112.29Zm-1.524-.618.711-1.7,1.263.528-.121.289-.919-.384-.158.377.856.358-.119.287L56.17,66.7l-.194.464.951.4-.119.287Zm-1.32-1.362.338.137a.433.433,0,0,0-.007.3.4.4,0,0,0,.2.2.412.412,0,0,0,.276.058.226.226,0,0,0,.164-.115.169.169,0,0,0,.018-.117.3.3,0,0,0-.083-.133c-.031-.034-.106-.1-.226-.21a1.006,1.006,0,0,1-.287-.357A.484.484,0,0,1,54.6,65.3a.47.47,0,0,1,.194-.2.5.5,0,0,1,.291-.059.917.917,0,0,1,.351.112.78.78,0,0,1,.393.378.54.54,0,0,1-.026.446l-.337-.159a.313.313,0,0,0,0-.229.369.369,0,0,0-.179-.165.427.427,0,0,0-.257-.059.131.131,0,0,0-.105.074.143.143,0,0,0,0,.125.978.978,0,0,0,.247.268,1.847,1.847,0,0,1,.3.3.528.528,0,0,1,.093.261.581.581,0,0,1-.288.517.526.526,0,0,1-.316.066,1.042,1.042,0,0,1-.388-.126.8.8,0,0,1-.4-.393.7.7,0,0,1,.021-.521" transform="translate(-24.564 -47.588)" fill="#fff"/>
    <rect id="Rectangle_80" data-name="Rectangle 80" width="0.596" height="56.792" transform="translate(58.198)" fill="#fff"/>
    <path id="Path_1425" data-name="Path 1425" d="M410.145,11.461h2.931V31.936h-2.931Zm17.527,20.475-2.872.284a6.087,6.087,0,0,1-.355-2.24V21.906q0-2.136-1.666-2.134a2.978,2.978,0,0,0-2.376,1.141,6.771,6.771,0,0,0-1.524,4.515v6.507H415.97V19.915a3.829,3.829,0,0,0-.638-2.234l2.66-.284a3.329,3.329,0,0,1,.638,2.057V20.2h.106a5,5,0,0,1,1.756-1.992,4.6,4.6,0,0,1,2.641-.81q4.221,0,4.22,4.48V29.7a6.165,6.165,0,0,0,.319,2.24m10.382-.071a8.77,8.77,0,0,1-2.411.354h-.532a4.526,4.526,0,0,1-2.872-.886A4.112,4.112,0,0,1,430.891,28V19.986h-2.3v-2.27h2.3V13.354l2.908-1.2v5.567h3.794v2.27H433.8v7.907q0,1.95,1.632,1.95h.248a6.89,6.89,0,0,0,2.056-.319Zm12.151-9.4a23.925,23.925,0,0,1-.284,2.978h-8.227v.248q0,4.149,3.085,4.149A7.832,7.832,0,0,0,449.07,28.6l.355,2.411a8.617,8.617,0,0,1-4.681,1.206q-5.887,0-5.886-6.915v-.958q0-6.914,5.886-6.915a5.841,5.841,0,0,1,3.723,1.17,4.6,4.6,0,0,1,1.738,3.866m-2.766-.071a2.538,2.538,0,0,0-.739-1.915,2.746,2.746,0,0,0-1.992-.71q-2.731,0-3.014,3.546h5.673q.072-.709.071-.921m14.426-4.711-.745,2.76a2.939,2.939,0,0,0-1.666-.5q-3.475,0-3.475,6.223v5.762H453.07V19.915a3.828,3.828,0,0,0-.638-2.234l2.66-.284a3.334,3.334,0,0,1,.638,2.057V20.2h.106a4.224,4.224,0,0,1,4.219-2.8,4.781,4.781,0,0,1,1.809.29m13.013,14.249-2.872.284a6.087,6.087,0,0,1-.355-2.24V21.906q0-2.136-1.666-2.134a2.978,2.978,0,0,0-2.377,1.141,6.77,6.77,0,0,0-1.525,4.515v6.507h-2.908V19.915a3.827,3.827,0,0,0-.638-2.234l2.66-.284a3.334,3.334,0,0,1,.638,2.057V20.2h.106a5,5,0,0,1,1.756-1.992,4.6,4.6,0,0,1,2.641-.81q4.221,0,4.22,4.48V29.7a6.164,6.164,0,0,0,.32,2.24m14.667-.029a6.528,6.528,0,0,1-1.6.242,2.15,2.15,0,0,1-2.339-1.525,6.027,6.027,0,0,1-4.043,1.525,4.512,4.512,0,0,1-3.315-1.318,4.677,4.677,0,0,1-1.33-3.469,4.188,4.188,0,0,1,1.241-3.1,3.9,3.9,0,0,1,2.8-1.123h4.007V21.617q0-1.879-1.773-1.879h-.461a6.683,6.683,0,0,0-3.794,1.063l-.355-2.234a6.458,6.458,0,0,1,4.007-1.135h1.028q4.255,0,4.255,4.291V28.6q0,1.489.886,1.489h.78Zm-4.574-3.742V25.3H481.6c-1.206,0-1.808.685-1.808,2.062a2.523,2.523,0,0,0,.637,1.8,1.977,1.977,0,0,0,1.49.68,4.1,4.1,0,0,0,3.049-1.679m13.864,3.7a8.77,8.77,0,0,1-2.411.354h-.533a4.528,4.528,0,0,1-2.872-.886A4.114,4.114,0,0,1,491.672,28V19.986h-2.306v-2.27h2.306V13.354l2.908-1.2v5.567h3.343v2.27H494.58v7.907q0,1.95,1.631,1.95h.248a6.892,6.892,0,0,0,2.056-.319Zm5.407-17.837h-2.908v-3.44h2.908Zm14.713,10.815a8.541,8.541,0,0,1-1.489,5.355A5.312,5.312,0,0,1,513,32.219a5.214,5.214,0,0,1-4.433-2.021,8.541,8.541,0,0,1-1.489-5.355,8.776,8.776,0,0,1,1.508-5.425,5.92,5.92,0,0,1,8.847,0,8.7,8.7,0,0,1,1.525,5.425m-2.908,0q0-5.035-3.049-5.035-3.014,0-3.014,5.035,0,5,3.014,5,3.049,0,3.049-5M533,31.936l-2.872.284a6.112,6.112,0,0,1-.354-2.24V21.906q0-2.136-1.666-2.134a2.977,2.977,0,0,0-2.376,1.141,6.77,6.77,0,0,0-1.525,4.515v6.507H521.3V19.915a3.834,3.834,0,0,0-.638-2.234l2.659-.284a3.331,3.331,0,0,1,.638,2.057V20.2h.106a5,5,0,0,1,1.756-1.992,4.605,4.605,0,0,1,2.642-.81q4.22,0,4.219,4.48V29.7a6.17,6.17,0,0,0,.319,2.24m14.668-.029a6.534,6.534,0,0,1-1.6.242,2.151,2.151,0,0,1-2.34-1.525,6.024,6.024,0,0,1-4.043,1.525,4.512,4.512,0,0,1-3.315-1.318,4.677,4.677,0,0,1-1.33-3.469,4.188,4.188,0,0,1,1.241-3.1,3.9,3.9,0,0,1,2.8-1.123h4.007V21.617q0-1.879-1.773-1.879h-.461a6.685,6.685,0,0,0-3.794,1.063l-.354-2.234a6.456,6.456,0,0,1,4.008-1.135h1.028q4.255,0,4.255,4.291V28.6q0,1.489.886,1.489h.78Zm-4.575-3.742V25.3h-3.369c-1.206,0-1.808.685-1.808,2.062a2.519,2.519,0,0,0,.638,1.8,1.977,1.977,0,0,0,1.489.68,4.1,4.1,0,0,0,3.05-1.679M386.221,17.114a5.867,5.867,0,0,1-1.844,4.468,6.462,6.462,0,0,1-4.61,1.737h-3.829v8.617h-3.049V11.369h6.6a7.279,7.279,0,0,1,4.947,1.56,5.269,5.269,0,0,1,1.791,4.185m-3.049,0a3.118,3.118,0,0,0-.922-2.323,3.805,3.805,0,0,0-2.766-.9h-3.546v6.88h3.652a3.548,3.548,0,0,0,2.535-.993,3.493,3.493,0,0,0,1.047-2.659m-11.582,4.539a12.6,12.6,0,0,1-1.879,7.269,7.027,7.027,0,0,1-6.17,3.014h-6.526V11.369h6.17a7.613,7.613,0,0,1,6.348,2.73q2.056,2.624,2.056,7.553m-3.049,0q0-7.767-5.355-7.766h-3.12v15.5h3.476a4.146,4.146,0,0,0,3.545-1.915,9.973,9.973,0,0,0,1.454-5.815M499.265,17.71h4.973v.006h0v11.1q0,1.275.887,1.276h.779v1.815a8.329,8.329,0,0,1-2.022.242,2.47,2.47,0,0,1-2.021-.815,2.307,2.307,0,0,1-.532-1.525V19.976h-2.07Zm-99.4,8.659a5.456,5.456,0,0,1-2.037,4.22,7.469,7.469,0,0,1-4.941,1.631,15.684,15.684,0,0,1-6.793-1.738l.747-2.517a13.624,13.624,0,0,0,6.121,1.666A3.968,3.968,0,0,0,395.8,28.6a3.079,3.079,0,0,0,1.022-2.234q.083-2.838-4.278-4.114-5.591-1.631-5.467-5.886a4.848,4.848,0,0,1,1.85-3.9,7.48,7.48,0,0,1,4.721-1.383,9.48,9.48,0,0,1,5.239,1.524l-.5,2.589a7.89,7.89,0,0,0-4.812-1.6q-3.475,0-3.555,2.766-.062,2.127,3.807,3.228,6.189,1.773,6.045,6.773m154.458,5.538a8.345,8.345,0,0,1-2.022.242,2.466,2.466,0,0,1-2.021-.815,2.3,2.3,0,0,1-.532-1.525V10.269l2.907-.5V28.815q0,1.277.886,1.276h.781Z" transform="translate(-282.9 -7.744)" fill="#fff"/>
    <path id="Path_1426" data-name="Path 1426" d="M1106.175,147.711a5.516,5.516,0,0,0,.074-.638c.011-.233.019-.482.019-.738a8.659,8.659,0,0,0-.648-3.53,4.778,4.778,0,0,0-1.8-2.168,5.076,5.076,0,0,0-2.746-.734,5.834,5.834,0,0,0-2.077.365,5.275,5.275,0,0,0-1.655,1.006,5.861,5.861,0,0,0-1.212,1.518,7.455,7.455,0,0,0-.745,1.9,9.1,9.1,0,0,0-.253,2.155,7.746,7.746,0,0,0,.742,3.488,5.221,5.221,0,0,0,2.136,2.26,6.928,6.928,0,0,0,3.414.8,13.61,13.61,0,0,0,1.565-.089,10.747,10.747,0,0,0,1.421-.256,7.813,7.813,0,0,0,1.208-.4l-.489-2.377a9.535,9.535,0,0,1-1.437.381,9.438,9.438,0,0,1-1.732.155,5.015,5.015,0,0,1-1.328-.171,3.184,3.184,0,0,1-1.107-.547,2.717,2.717,0,0,1-.777-.963,3.566,3.566,0,0,1-.33-1.417Zm-7.76-2.4a4.626,4.626,0,0,1,.19-1.01,3.7,3.7,0,0,1,.446-.974,2.476,2.476,0,0,1,.742-.734,2.152,2.152,0,0,1,2.136-.008,2.058,2.058,0,0,1,.688.715,3.307,3.307,0,0,1,.361.971,4.562,4.562,0,0,1,.1,1.041Zm-8.7-3.576h-.047a3.611,3.611,0,0,0-.742-.929,3.329,3.329,0,0,0-1.079-.645,4.1,4.1,0,0,0-1.441-.245,4.693,4.693,0,0,0-2.047.462,5.176,5.176,0,0,0-1.708,1.344,6.446,6.446,0,0,0-1.168,2.144,9.13,9.13,0,0,0-.436,2.878,8.78,8.78,0,0,0,.35,2.482,6.368,6.368,0,0,0,1,2,4.651,4.651,0,0,0,1.576,1.34,4.479,4.479,0,0,0,2.082.489,4.1,4.1,0,0,0,1.907-.442,3.46,3.46,0,0,0,1.332-1.212h.047v.955l-.013.811c-.03,1.908.349,2.949-1.509,3.923a3.559,3.559,0,0,1-1.694.377,7.025,7.025,0,0,1-1.308-.125,7.423,7.423,0,0,1-1.142-.31,6.444,6.444,0,0,1-.9-.4l-.676,2.633a5.719,5.719,0,0,0,1.181.49,9.109,9.109,0,0,0,1.413.3,11.33,11.33,0,0,0,1.508.1,8.951,8.951,0,0,0,2.679-.361c3.621-1.156,3.816-4.11,3.824-7.336.015-6.355-.032-4.155-.051-10.51,0-.372.188-1.463.212-1.77h-3.006Zm-.42,6a3.591,3.591,0,0,1-.229,1.352,2.236,2.236,0,0,1-.567.827,2.123,2.123,0,0,1-.718.419,2.2,2.2,0,0,1-2.07-.369,3.007,3.007,0,0,1-.885-1.332,5.926,5.926,0,0,1-.307-1.992,6.341,6.341,0,0,1,.33-2.129,3.234,3.234,0,0,1,.908-1.394,2.088,2.088,0,0,1,1.371-.5,2.019,2.019,0,0,1,1.08.307,2.2,2.2,0,0,1,.784.89,3.113,3.113,0,0,1,.3,1.414Zm-13.663,3.673h-.047a3.6,3.6,0,0,1-.741.929,3.345,3.345,0,0,1-1.08.645,4.106,4.106,0,0,1-1.441.245,4.684,4.684,0,0,1-2.046-.462,5.156,5.156,0,0,1-1.709-1.344,6.443,6.443,0,0,1-1.169-2.144,9.122,9.122,0,0,1-.436-2.878,8.78,8.78,0,0,1,.35-2.481,6.374,6.374,0,0,1,1-2,4.641,4.641,0,0,1,1.577-1.34,4.472,4.472,0,0,1,2.081-.49,4.106,4.106,0,0,1,1.907.443,3.451,3.451,0,0,1,1.332,1.212h.047v-.955l-.013-.81c-.03-1.909.349-2.949-1.509-3.923a3.571,3.571,0,0,0-1.694-.377,7.041,7.041,0,0,0-1.308.125,7.3,7.3,0,0,0-1.142.311,6.369,6.369,0,0,0-.905.4l-.676-2.633a5.736,5.736,0,0,1,1.181-.489,9.23,9.23,0,0,1,1.414-.3,11.488,11.488,0,0,1,1.507-.1,8.952,8.952,0,0,1,2.679.361c3.621,1.157,3.816,4.111,3.824,7.336.016,6.355-.032,4.155-.051,10.51,0,.372.188,1.463.212,1.769h-3.006Zm-.42-6a3.589,3.589,0,0,0-.229-1.351,2.233,2.233,0,0,0-.567-.828,2.11,2.11,0,0,0-.719-.419,2.2,2.2,0,0,0-2.07.368,3.008,3.008,0,0,0-.885,1.332,5.926,5.926,0,0,0-.307,1.992,6.356,6.356,0,0,0,.33,2.128,3.231,3.231,0,0,0,.909,1.395,2.085,2.085,0,0,0,1.371.5,2.021,2.021,0,0,0,1.079-.307,2.2,2.2,0,0,0,.784-.889,3.117,3.117,0,0,0,.3-1.414Zm-10.61,2.3a5.627,5.627,0,0,0,.074-.638c.012-.233.019-.482.019-.738a8.67,8.67,0,0,0-.649-3.53,4.773,4.773,0,0,0-1.8-2.168,5.074,5.074,0,0,0-2.746-.734,5.839,5.839,0,0,0-2.078.365,5.279,5.279,0,0,0-1.655,1.006,5.889,5.889,0,0,0-1.211,1.518,7.483,7.483,0,0,0-.745,1.9,9.108,9.108,0,0,0-.252,2.155,7.747,7.747,0,0,0,.741,3.488,5.226,5.226,0,0,0,2.136,2.26,6.931,6.931,0,0,0,3.414.8,13.609,13.609,0,0,0,1.565-.089,10.766,10.766,0,0,0,1.422-.256,7.8,7.8,0,0,0,1.207-.4l-.489-2.377a9.5,9.5,0,0,1-3.169.536,5.014,5.014,0,0,1-1.328-.171,3.193,3.193,0,0,1-1.107-.547,2.729,2.729,0,0,1-.777-.963,3.579,3.579,0,0,1-.33-1.417Zm-7.76-2.4a4.64,4.64,0,0,1,.19-1.01,3.669,3.669,0,0,1,.447-.974,2.466,2.466,0,0,1,.742-.734,2.151,2.151,0,0,1,2.135-.008,2.049,2.049,0,0,1,.688.715,3.31,3.31,0,0,1,.361.971,4.529,4.529,0,0,1,.1,1.041Z" transform="translate(-834.842 -105.386)" fill="#f07a05"/>
    <path id="Path_1427" data-name="Path 1427" d="M554.531,148.7H529.048v-.493h25.483Zm-55.7,16.654h-.493V148.7h-141.1v-.493H513.4v.493h-14.57Z" transform="translate(-283.076 -117.443)" fill="#fff"/>
    <path id="Path_1428" data-name="Path 1428" d="M400.07,179.188a.094.094,0,0,1-.018.059.142.142,0,0,1-.058.042.409.409,0,0,1-.109.027,1.54,1.54,0,0,1-.182.009,1.484,1.484,0,0,1-.175-.009.44.44,0,0,1-.111-.027.109.109,0,0,1-.057-.042.105.105,0,0,1-.016-.059v-5.865a.116.116,0,0,1,.016-.062.112.112,0,0,1,.057-.045.5.5,0,0,1,.111-.025,1.36,1.36,0,0,1,.175-.009,1.415,1.415,0,0,1,.182.009.465.465,0,0,1,.109.025.147.147,0,0,1,.058.045.1.1,0,0,1,.018.062Zm-2.423.4a.447.447,0,0,0-.208-.393,1.069,1.069,0,0,0-.564-.147l-1.023-.035a1.837,1.837,0,0,0-.23.208,1.243,1.243,0,0,0-.144.189.65.65,0,0,0-.071.177.786.786,0,0,0-.02.18.465.465,0,0,0,.289.433,1.828,1.828,0,0,0,.808.147,2.044,2.044,0,0,0,.551-.063,1.086,1.086,0,0,0,.358-.169.626.626,0,0,0,.195-.242.72.72,0,0,0,.06-.286m-.364-3.13a.866.866,0,0,0-.221-.629.842.842,0,0,0-.631-.226.873.873,0,0,0-.366.071.7.7,0,0,0-.259.193.834.834,0,0,0-.154.283,1.121,1.121,0,0,0-.051.336.773.773,0,0,0,.843.839.919.919,0,0,0,.373-.069.69.69,0,0,0,.261-.189.778.778,0,0,0,.154-.279,1.08,1.08,0,0,0,.051-.329m1.131-1.04a.442.442,0,0,1-.041.221.126.126,0,0,1-.108.069H397.7a.882.882,0,0,1,.214.348,1.259,1.259,0,0,1,.062.4,1.569,1.569,0,0,1-.109.606,1.223,1.223,0,0,1-.313.445,1.4,1.4,0,0,1-.486.278,1.9,1.9,0,0,1-.624.1,1.576,1.576,0,0,1-.458-.064.93.93,0,0,1-.336-.161.741.741,0,0,0-.131.18.533.533,0,0,0-.049.234.3.3,0,0,0,.143.255.678.678,0,0,0,.379.109l1.032.044a2.119,2.119,0,0,1,.54.081,1.351,1.351,0,0,1,.425.207.949.949,0,0,1,.282.329.977.977,0,0,1,.1.454,1.186,1.186,0,0,1-.463.95,1.778,1.778,0,0,1-.6.3,3.132,3.132,0,0,1-.859.106,3.571,3.571,0,0,1-.815-.081,1.731,1.731,0,0,1-.55-.222.856.856,0,0,1-.312-.336.949.949,0,0,1-.1-.424,1.106,1.106,0,0,1,.036-.28.986.986,0,0,1,.107-.26,1.384,1.384,0,0,1,.181-.235,2.316,2.316,0,0,1,.247-.222.77.77,0,0,1-.317-.276.666.666,0,0,1-.1-.361,1.014,1.014,0,0,1,.11-.479,1.58,1.58,0,0,1,.272-.377,1.306,1.306,0,0,1-.216-.366,1.375,1.375,0,0,1-.08-.495,1.517,1.517,0,0,1,.116-.606,1.274,1.274,0,0,1,.316-.452,1.377,1.377,0,0,1,.484-.283,1.874,1.874,0,0,1,.617-.1,2.532,2.532,0,0,1,.336.02,2.3,2.3,0,0,1,.292.056h1.195a.117.117,0,0,1,.111.071.5.5,0,0,1,.037.222m-7.538,4.17a.447.447,0,0,0-.208-.393,1.069,1.069,0,0,0-.564-.147l-1.023-.035a1.817,1.817,0,0,0-.23.208,1.239,1.239,0,0,0-.144.189.646.646,0,0,0-.071.177.779.779,0,0,0-.02.18.465.465,0,0,0,.289.433,1.826,1.826,0,0,0,.808.147,2.046,2.046,0,0,0,.552-.063,1.086,1.086,0,0,0,.358-.169.626.626,0,0,0,.195-.242.724.724,0,0,0,.06-.286m-.364-3.13a.866.866,0,0,0-.221-.629.842.842,0,0,0-.631-.226.872.872,0,0,0-.366.071.7.7,0,0,0-.26.193.836.836,0,0,0-.154.283,1.115,1.115,0,0,0-.051.336.774.774,0,0,0,.843.839.919.919,0,0,0,.373-.069.69.69,0,0,0,.261-.189.78.78,0,0,0,.154-.279,1.079,1.079,0,0,0,.051-.329m1.131-1.04a.442.442,0,0,1-.041.221.126.126,0,0,1-.108.069h-.566a.883.883,0,0,1,.214.348,1.259,1.259,0,0,1,.062.4,1.57,1.57,0,0,1-.109.606,1.224,1.224,0,0,1-.313.445,1.4,1.4,0,0,1-.486.278,1.9,1.9,0,0,1-.624.1,1.574,1.574,0,0,1-.458-.064.93.93,0,0,1-.336-.161.742.742,0,0,0-.131.18.533.533,0,0,0-.049.234.3.3,0,0,0,.143.255.678.678,0,0,0,.379.109l1.032.044a2.114,2.114,0,0,1,.54.081,1.348,1.348,0,0,1,.425.207.948.948,0,0,1,.282.329.977.977,0,0,1,.1.454,1.187,1.187,0,0,1-.463.95,1.779,1.779,0,0,1-.6.3,3.132,3.132,0,0,1-.86.106,3.572,3.572,0,0,1-.815-.081,1.729,1.729,0,0,1-.55-.222.858.858,0,0,1-.312-.336.951.951,0,0,1-.1-.424,1.115,1.115,0,0,1,.035-.28,1,1,0,0,1,.107-.26,1.365,1.365,0,0,1,.181-.235,2.314,2.314,0,0,1,.247-.222.769.769,0,0,1-.317-.276.667.667,0,0,1-.1-.361,1.014,1.014,0,0,1,.11-.479,1.579,1.579,0,0,1,.272-.377,1.306,1.306,0,0,1-.216-.366,1.375,1.375,0,0,1-.079-.495,1.518,1.518,0,0,1,.116-.606,1.277,1.277,0,0,1,.315-.452,1.381,1.381,0,0,1,.484-.283,1.875,1.875,0,0,1,.617-.1,2.532,2.532,0,0,1,.336.02,2.334,2.334,0,0,1,.293.056h1.194a.117.117,0,0,1,.111.071.5.5,0,0,1,.037.222m-4.621,3.771a.1.1,0,0,1-.018.059.136.136,0,0,1-.058.042.408.408,0,0,1-.109.027,1.482,1.482,0,0,1-.175.009,1.532,1.532,0,0,1-.181-.009.4.4,0,0,1-.109-.027.134.134,0,0,1-.057-.042.1.1,0,0,1-.019-.059v-2.313a2.234,2.234,0,0,0-.052-.544,1.134,1.134,0,0,0-.153-.357.663.663,0,0,0-.262-.228.835.835,0,0,0-.37-.079.934.934,0,0,0-.544.194,2.886,2.886,0,0,0-.571.566v2.761a.1.1,0,0,1-.019.059.134.134,0,0,1-.057.042.408.408,0,0,1-.109.027,1.558,1.558,0,0,1-.182.009,1.484,1.484,0,0,1-.175-.009.422.422,0,0,1-.111-.027.109.109,0,0,1-.057-.042.1.1,0,0,1-.017-.059v-3.951a.122.122,0,0,1,.014-.06.135.135,0,0,1,.053-.044.309.309,0,0,1,.1-.025,1.407,1.407,0,0,1,.162-.007,1.43,1.43,0,0,1,.16.007.284.284,0,0,1,.1.025.2.2,0,0,1,.051.044.131.131,0,0,1,.015.06v.523a2.415,2.415,0,0,1,.665-.547,1.433,1.433,0,0,1,.669-.174,1.481,1.481,0,0,1,.665.135,1.184,1.184,0,0,1,.437.356,1.431,1.431,0,0,1,.239.525,3.061,3.061,0,0,1,.074.722Zm-4.659-5.286a.478.478,0,0,1-.1.347.52.52,0,0,1-.356.092.51.51,0,0,1-.349-.09.468.468,0,0,1-.094-.34.479.479,0,0,1,.1-.346.516.516,0,0,1,.355-.093.508.508,0,0,1,.349.09.468.468,0,0,1,.095.34m-.083,5.286a.1.1,0,0,1-.018.059.146.146,0,0,1-.057.042.416.416,0,0,1-.109.027,1.545,1.545,0,0,1-.182.009,1.482,1.482,0,0,1-.175-.009.437.437,0,0,1-.111-.027.108.108,0,0,1-.057-.042.106.106,0,0,1-.016-.059v-3.951a.108.108,0,0,1,.016-.057.1.1,0,0,1,.057-.044.431.431,0,0,1,.111-.027,1.326,1.326,0,0,1,.175-.009,1.387,1.387,0,0,1,.182.009.41.41,0,0,1,.109.027.127.127,0,0,1,.057.044.1.1,0,0,1,.018.057ZM380.73,175.5c0,.064,0,.118-.005.161a.491.491,0,0,1-.016.1.172.172,0,0,1-.033.057.071.071,0,0,1-.055.019.22.22,0,0,1-.085-.019c-.035-.014-.072-.025-.114-.039s-.09-.025-.142-.037a.777.777,0,0,0-.173-.019.541.541,0,0,0-.214.045.8.8,0,0,0-.222.144,1.9,1.9,0,0,0-.244.268c-.084.111-.179.247-.28.408v2.6a.1.1,0,0,1-.019.059.133.133,0,0,1-.057.042.409.409,0,0,1-.109.027,1.56,1.56,0,0,1-.182.009,1.483,1.483,0,0,1-.175-.009.423.423,0,0,1-.111-.027.109.109,0,0,1-.057-.042.105.105,0,0,1-.017-.059v-3.951a.121.121,0,0,1,.014-.06.136.136,0,0,1,.053-.044.309.309,0,0,1,.1-.025,1.407,1.407,0,0,1,.162-.007,1.43,1.43,0,0,1,.16.007.285.285,0,0,1,.1.025.2.2,0,0,1,.051.044.132.132,0,0,1,.014.06v.575a3.05,3.05,0,0,1,.3-.386,1.722,1.722,0,0,1,.271-.235.8.8,0,0,1,.252-.118,1.026,1.026,0,0,1,.251-.033c.039,0,.083,0,.131.007a1.369,1.369,0,0,1,.294.063.329.329,0,0,1,.09.043.13.13,0,0,1,.036.042.248.248,0,0,1,.015.051.629.629,0,0,1,.009.09c0,.039,0,.092,0,.16m-4.359,1.893h-.62a2.373,2.373,0,0,0-.518.049,1.1,1.1,0,0,0-.364.149.619.619,0,0,0-.212.237.711.711,0,0,0-.067.318.636.636,0,0,0,.195.49.771.771,0,0,0,.547.183,1.009,1.009,0,0,0,.529-.145,2.254,2.254,0,0,0,.512-.444Zm.721,1.8a.088.088,0,0,1-.036.078.238.238,0,0,1-.1.04.92.92,0,0,1-.18.014.972.972,0,0,1-.182-.014.218.218,0,0,1-.1-.04.092.092,0,0,1-.03-.078v-.4a1.957,1.957,0,0,1-.578.431,1.541,1.541,0,0,1-.673.154,1.783,1.783,0,0,1-.565-.083,1.208,1.208,0,0,1-.43-.234,1.085,1.085,0,0,1-.277-.377,1.274,1.274,0,0,1-.1-.51,1.186,1.186,0,0,1,.135-.58,1.149,1.149,0,0,1,.391-.407,1.9,1.9,0,0,1,.624-.245,3.928,3.928,0,0,1,.83-.08h.544v-.307a1.579,1.579,0,0,0-.048-.4.693.693,0,0,0-.157-.291.677.677,0,0,0-.278-.177,1.323,1.323,0,0,0-.422-.058,1.69,1.69,0,0,0-.481.063,2.62,2.62,0,0,0-.373.141,2.877,2.877,0,0,0-.268.14.372.372,0,0,1-.161.063.114.114,0,0,1-.061-.017.147.147,0,0,1-.047-.054.3.3,0,0,1-.028-.09.683.683,0,0,1-.01-.12.75.75,0,0,1,.017-.174.253.253,0,0,1,.075-.122.933.933,0,0,1,.2-.133,2.379,2.379,0,0,1,.333-.141,3.14,3.14,0,0,1,.413-.1,2.62,2.62,0,0,1,1.176.055,1.171,1.171,0,0,1,.482.283,1.093,1.093,0,0,1,.268.463,2.254,2.254,0,0,1,.084.645Zm-4.83-1.958a3.8,3.8,0,0,0-.045-.585,1.734,1.734,0,0,0-.159-.5.954.954,0,0,0-.3-.351.8.8,0,0,0-.469-.131.9.9,0,0,0-.277.042,1.153,1.153,0,0,0-.276.131,2.085,2.085,0,0,0-.3.237,3.739,3.739,0,0,0-.323.362v1.573a3.087,3.087,0,0,0,.566.557.945.945,0,0,0,.562.193.826.826,0,0,0,.468-.131,1.018,1.018,0,0,0,.316-.353,1.75,1.75,0,0,0,.177-.491,2.593,2.593,0,0,0,.057-.548m.764-.083a3.544,3.544,0,0,1-.112.93,2.033,2.033,0,0,1-.328.7,1.486,1.486,0,0,1-.538.444,1.675,1.675,0,0,1-.735.156,1.4,1.4,0,0,1-.323-.036,1.2,1.2,0,0,1-.292-.109,1.611,1.611,0,0,1-.283-.189,3.846,3.846,0,0,1-.3-.268v1.977a.108.108,0,0,1-.018.061.153.153,0,0,1-.058.044.415.415,0,0,1-.109.027c-.048,0-.108.007-.182.007s-.127,0-.175-.007a.451.451,0,0,1-.111-.027.114.114,0,0,1-.057-.044.119.119,0,0,1-.016-.061v-5.519a.121.121,0,0,1,.013-.062.106.106,0,0,1,.053-.042.339.339,0,0,1,.1-.024,1.554,1.554,0,0,1,.3,0,.315.315,0,0,1,.1.024.117.117,0,0,1,.056.042.108.108,0,0,1,.015.063v.532a3.713,3.713,0,0,1,.347-.32,1.937,1.937,0,0,1,.336-.226,1.552,1.552,0,0,1,.346-.137,1.466,1.466,0,0,1,.376-.046,1.487,1.487,0,0,1,.733.168,1.374,1.374,0,0,1,.493.456,2.033,2.033,0,0,1,.278.674,3.565,3.565,0,0,1,.088.814m-5.465-.324a1.314,1.314,0,0,0-.253-.9.953.953,0,0,0-.787-.325,1.033,1.033,0,0,0-.47.1.984.984,0,0,0-.337.267,1.216,1.216,0,0,0-.212.388,1.639,1.639,0,0,0-.083.464Zm.728.215a.306.306,0,0,1-.085.244.291.291,0,0,1-.195.071h-2.591a2.506,2.506,0,0,0,.066.594,1.132,1.132,0,0,0,.221.452.988.988,0,0,0,.4.29,1.582,1.582,0,0,0,.6.1,2.376,2.376,0,0,0,.5-.047,2.561,2.561,0,0,0,.379-.1c.106-.037.195-.072.264-.1a.4.4,0,0,1,.156-.047.1.1,0,0,1,.054.015.1.1,0,0,1,.037.047.348.348,0,0,1,.021.085c0,.037.006.081.006.134s0,.071,0,.1-.007.052-.011.075a.205.205,0,0,1-.023.06.361.361,0,0,1-.039.049.641.641,0,0,1-.143.08,2.2,2.2,0,0,1-.307.108c-.126.034-.272.066-.436.094a3.228,3.228,0,0,1-.529.042,2.466,2.466,0,0,1-.854-.136,1.612,1.612,0,0,1-.618-.4,1.73,1.73,0,0,1-.377-.671,3.158,3.158,0,0,1-.127-.939,3,3,0,0,1,.131-.915,1.961,1.961,0,0,1,.38-.69,1.667,1.667,0,0,1,.6-.434,1.968,1.968,0,0,1,.785-.152,1.885,1.885,0,0,1,.792.15,1.51,1.51,0,0,1,.539.4,1.6,1.6,0,0,1,.308.592,2.569,2.569,0,0,1,.1.727Zm-4.078-1.545c0,.064,0,.118,0,.161a.5.5,0,0,1-.017.1.189.189,0,0,1-.032.057.074.074,0,0,1-.056.019.223.223,0,0,1-.085-.019c-.035-.014-.072-.025-.114-.039s-.089-.025-.142-.037a.777.777,0,0,0-.172-.019.544.544,0,0,0-.215.045.788.788,0,0,0-.221.144,1.858,1.858,0,0,0-.244.268c-.084.111-.178.247-.28.408v2.6a.1.1,0,0,1-.018.059.143.143,0,0,1-.058.042.407.407,0,0,1-.109.027,1.543,1.543,0,0,1-.182.009,1.482,1.482,0,0,1-.175-.009.438.438,0,0,1-.111-.027.107.107,0,0,1-.057-.042.1.1,0,0,1-.016-.059v-3.951a.122.122,0,0,1,.013-.06.143.143,0,0,1,.053-.044.314.314,0,0,1,.1-.025,1.4,1.4,0,0,1,.162-.007,1.422,1.422,0,0,1,.161.007.278.278,0,0,1,.1.025.172.172,0,0,1,.051.044.122.122,0,0,1,.015.06v.575a3.089,3.089,0,0,1,.3-.386,1.722,1.722,0,0,1,.272-.235.8.8,0,0,1,.251-.118,1.025,1.025,0,0,1,.252-.033c.039,0,.082,0,.13.007a1.24,1.24,0,0,1,.152.024,1.162,1.162,0,0,1,.142.039.332.332,0,0,1,.09.043.12.12,0,0,1,.035.042.205.205,0,0,1,.016.051.553.553,0,0,1,.009.09c0,.039,0,.092,0,.16m-4.161,1.738a3.728,3.728,0,0,0-.045-.585,1.72,1.72,0,0,0-.158-.5.964.964,0,0,0-.3-.351.806.806,0,0,0-.469-.131.9.9,0,0,0-.277.042,1.138,1.138,0,0,0-.276.131,1.993,1.993,0,0,0-.3.237,3.7,3.7,0,0,0-.323.362v1.573a3.086,3.086,0,0,0,.566.557.945.945,0,0,0,.562.193.826.826,0,0,0,.468-.131,1.008,1.008,0,0,0,.316-.353,1.791,1.791,0,0,0,.177-.491,2.593,2.593,0,0,0,.057-.548m.764-.083a3.545,3.545,0,0,1-.112.93,2.033,2.033,0,0,1-.328.7,1.486,1.486,0,0,1-.538.444,1.677,1.677,0,0,1-.735.156,1.4,1.4,0,0,1-.323-.036,1.187,1.187,0,0,1-.292-.109,1.6,1.6,0,0,1-.283-.189,3.8,3.8,0,0,1-.3-.268v1.977a.109.109,0,0,1-.019.061.145.145,0,0,1-.057.044.417.417,0,0,1-.109.027c-.048,0-.109.007-.182.007s-.127,0-.175-.007a.432.432,0,0,1-.111-.027.114.114,0,0,1-.057-.044.121.121,0,0,1-.017-.061v-5.519a.121.121,0,0,1,.014-.062.1.1,0,0,1,.053-.042.332.332,0,0,1,.1-.024,1.552,1.552,0,0,1,.3,0,.315.315,0,0,1,.1.024.114.114,0,0,1,.055.042.107.107,0,0,1,.015.063v.532a3.613,3.613,0,0,1,.347-.32,1.935,1.935,0,0,1,.336-.226,1.55,1.55,0,0,1,.346-.137,1.457,1.457,0,0,1,.376-.046,1.482,1.482,0,0,1,.732.168,1.359,1.359,0,0,1,.493.456,2.029,2.029,0,0,1,.279.674,3.567,3.567,0,0,1,.088.814" transform="translate(-283.03 -137.231)" fill="#fff"/>
    <path id="Path_1429" data-name="Path 1429" d="M620,177.217a3,3,0,0,0-.06-.6,1.5,1.5,0,0,0-.194-.5.987.987,0,0,0-.368-.34,1.21,1.21,0,0,0-.58-.126,1.234,1.234,0,0,0-.552.115,1,1,0,0,0-.379.322,1.431,1.431,0,0,0-.221.495,2.552,2.552,0,0,0-.072.624,3.043,3.043,0,0,0,.058.61,1.405,1.405,0,0,0,.2.5,1,1,0,0,0,.37.339,1.4,1.4,0,0,0,1.129.01,1.008,1.008,0,0,0,.382-.32,1.358,1.358,0,0,0,.22-.491,2.611,2.611,0,0,0,.07-.628m.763-.048a2.947,2.947,0,0,1-.127.889,1.964,1.964,0,0,1-.379.7,1.717,1.717,0,0,1-.632.459,2.208,2.208,0,0,1-.88.165,2.3,2.3,0,0,1-.85-.145,1.55,1.55,0,0,1-.6-.422,1.809,1.809,0,0,1-.359-.672,3.1,3.1,0,0,1-.118-.895,3.054,3.054,0,0,1,.124-.889,1.964,1.964,0,0,1,.378-.7,1.7,1.7,0,0,1,.631-.456,2.2,2.2,0,0,1,.881-.163,2.264,2.264,0,0,1,.85.145,1.547,1.547,0,0,1,.6.422,1.809,1.809,0,0,1,.362.671,3.034,3.034,0,0,1,.12.892m-7.25.944a1.246,1.246,0,0,1-.112.539,1.1,1.1,0,0,1-.319.4,1.407,1.407,0,0,1-.491.246,2.221,2.221,0,0,1-.628.084,2.394,2.394,0,0,1-.744-.117,1.816,1.816,0,0,1-.258-.1.928.928,0,0,1-.152-.1.255.255,0,0,1-.071-.123.839.839,0,0,1-.022-.216,1.024,1.024,0,0,1,.008-.141.529.529,0,0,1,.023-.091.093.093,0,0,1,.092-.067.3.3,0,0,1,.144.06c.063.039.14.083.233.129a2.083,2.083,0,0,0,.327.129,1.419,1.419,0,0,0,.434.06,1.364,1.364,0,0,0,.334-.039.826.826,0,0,0,.26-.117.525.525,0,0,0,.168-.195.619.619,0,0,0,.06-.282.457.457,0,0,0-.085-.281.848.848,0,0,0-.226-.2,1.912,1.912,0,0,0-.316-.156c-.117-.045-.238-.093-.362-.142a3.966,3.966,0,0,1-.364-.17,1.332,1.332,0,0,1-.318-.23,1.04,1.04,0,0,1-.226-.325,1.092,1.092,0,0,1-.085-.453,1.122,1.122,0,0,1,.09-.445,1.018,1.018,0,0,1,.269-.373,1.372,1.372,0,0,1,.449-.256,2.018,2.018,0,0,1,.947-.071,1.929,1.929,0,0,1,.285.066,1.2,1.2,0,0,1,.217.085.825.825,0,0,1,.136.081.237.237,0,0,1,.062.062.2.2,0,0,1,.023.059c0,.021.007.049.012.081a.929.929,0,0,1,.007.119,1.126,1.126,0,0,1-.007.129.314.314,0,0,1-.021.09.118.118,0,0,1-.038.051.08.08,0,0,1-.048.015.235.235,0,0,1-.115-.048,1.867,1.867,0,0,0-.191-.1,2.337,2.337,0,0,0-.281-.1,1.285,1.285,0,0,0-.366-.048,1.132,1.132,0,0,0-.325.042.637.637,0,0,0-.23.118.5.5,0,0,0-.137.182.59.59,0,0,0-.045.228.467.467,0,0,0,.087.288.823.823,0,0,0,.229.2,2.025,2.025,0,0,0,.319.159c.122.046.243.094.367.143s.247.106.369.168a1.386,1.386,0,0,1,.323.223,1,1,0,0,1,.311.756m-3.8,1.075a.1.1,0,0,1-.019.059.134.134,0,0,1-.057.042.415.415,0,0,1-.109.027,1.482,1.482,0,0,1-.175.009,1.562,1.562,0,0,1-.182-.009.423.423,0,0,1-.109-.027.146.146,0,0,1-.057-.042.1.1,0,0,1-.018-.059v-2.313a2.239,2.239,0,0,0-.052-.544,1.137,1.137,0,0,0-.153-.357.661.661,0,0,0-.263-.228.831.831,0,0,0-.37-.079.938.938,0,0,0-.544.194,2.912,2.912,0,0,0-.571.566v2.761a.094.094,0,0,1-.018.059.138.138,0,0,1-.057.042.416.416,0,0,1-.11.027,1.534,1.534,0,0,1-.181.009,1.48,1.48,0,0,1-.176-.009.423.423,0,0,1-.11-.027.111.111,0,0,1-.057-.042.1.1,0,0,1-.016-.059v-3.951a.113.113,0,0,1,.014-.06.138.138,0,0,1,.052-.044.319.319,0,0,1,.1-.025,1.785,1.785,0,0,1,.322,0,.273.273,0,0,1,.1.025.177.177,0,0,1,.051.044.121.121,0,0,1,.015.06v.523a2.4,2.4,0,0,1,.665-.547,1.43,1.43,0,0,1,.668-.174,1.475,1.475,0,0,1,.665.135,1.19,1.19,0,0,1,.438.356,1.43,1.43,0,0,1,.238.525,3.056,3.056,0,0,1,.074.722Zm-5.233-2.361a1.311,1.311,0,0,0-.254-.9.953.953,0,0,0-.786-.325,1.04,1.04,0,0,0-.471.1.984.984,0,0,0-.336.267,1.22,1.22,0,0,0-.212.388,1.647,1.647,0,0,0-.083.464Zm.728.215a.305.305,0,0,1-.085.244.294.294,0,0,1-.2.071h-2.59a2.463,2.463,0,0,0,.066.594,1.121,1.121,0,0,0,.221.452.985.985,0,0,0,.4.29,1.587,1.587,0,0,0,.6.1,2.378,2.378,0,0,0,.5-.047,2.623,2.623,0,0,0,.379-.1c.106-.037.195-.072.263-.1a.409.409,0,0,1,.157-.047.1.1,0,0,1,.053.015.1.1,0,0,1,.037.047.278.278,0,0,1,.021.085c0,.037.007.081.007.134a.825.825,0,0,1-.005.1.593.593,0,0,1-.011.075.176.176,0,0,1-.023.06.263.263,0,0,1-.039.049.637.637,0,0,1-.143.08,2.172,2.172,0,0,1-.307.108q-.189.051-.436.094a3.245,3.245,0,0,1-.53.042,2.466,2.466,0,0,1-.854-.136,1.61,1.61,0,0,1-.617-.4,1.727,1.727,0,0,1-.378-.671,3.183,3.183,0,0,1-.127-.939,3,3,0,0,1,.132-.915,1.95,1.95,0,0,1,.38-.69,1.656,1.656,0,0,1,.6-.434,1.973,1.973,0,0,1,.785-.152,1.891,1.891,0,0,1,.793.15,1.506,1.506,0,0,1,.537.4,1.6,1.6,0,0,1,.309.592,2.606,2.606,0,0,1,.1.727Zm-4.2,1.95a.613.613,0,0,1-.014.142.56.56,0,0,1-.029.1.117.117,0,0,1-.049.053.141.141,0,0,1-.067.015h-2.432a.2.2,0,0,1-.151-.061.294.294,0,0,1-.058-.207v-.148a.57.57,0,0,1,.009-.111.494.494,0,0,1,.025-.1.844.844,0,0,1,.048-.1c.021-.036.046-.078.075-.124l1.743-2.713h-1.691a.124.124,0,0,1-.11-.072.487.487,0,0,1-.042-.235.976.976,0,0,1,.009-.138.278.278,0,0,1,.029-.1.126.126,0,0,1,.048-.053.141.141,0,0,1,.067-.015h2.266a.249.249,0,0,1,.086.013.144.144,0,0,1,.064.044.251.251,0,0,1,.042.079.456.456,0,0,1,.015.122v.14a.738.738,0,0,1-.009.115.579.579,0,0,1-.027.1.55.55,0,0,1-.048.108c-.021.039-.045.081-.075.127L599,178.688h1.851a.132.132,0,0,1,.065.015.121.121,0,0,1,.048.051.328.328,0,0,1,.033.094.659.659,0,0,1,.013.143m-3.776-5.089a.476.476,0,0,1-.1.347.517.517,0,0,1-.355.092.508.508,0,0,1-.349-.09.463.463,0,0,1-.094-.34.473.473,0,0,1,.1-.346.515.515,0,0,1,.355-.093.509.509,0,0,1,.349.09.468.468,0,0,1,.095.34m-.083,5.286a.094.094,0,0,1-.018.059.142.142,0,0,1-.057.042.409.409,0,0,1-.109.027,1.541,1.541,0,0,1-.182.009,1.482,1.482,0,0,1-.175-.009.441.441,0,0,1-.111-.027.109.109,0,0,1-.057-.042.106.106,0,0,1-.016-.059v-3.951a.107.107,0,0,1,.016-.057.1.1,0,0,1,.057-.044.435.435,0,0,1,.111-.027,1.327,1.327,0,0,1,.175-.009,1.384,1.384,0,0,1,.182.009.4.4,0,0,1,.109.027.124.124,0,0,1,.057.044.094.094,0,0,1,.018.057Zm-1.683-.29a1.08,1.08,0,0,1-.016.2.226.226,0,0,1-.054.11.323.323,0,0,1-.1.066.861.861,0,0,1-.161.051c-.06.013-.123.023-.191.032a1.668,1.668,0,0,1-.73-.067.868.868,0,0,1-.359-.246,1.026,1.026,0,0,1-.2-.418,2.514,2.514,0,0,1-.062-.6v-2.309h-.555a.117.117,0,0,1-.1-.07.485.485,0,0,1-.039-.228.77.77,0,0,1,.011-.141.4.4,0,0,1,.028-.094.115.115,0,0,1,.046-.053.131.131,0,0,1,.063-.015h.55v-.94a.108.108,0,0,1,.015-.057.123.123,0,0,1,.058-.047.377.377,0,0,1,.112-.028,1.491,1.491,0,0,1,.175-.009,1.535,1.535,0,0,1,.18.009.36.36,0,0,1,.109.028.147.147,0,0,1,.057.047.1.1,0,0,1,.018.057v.94h1.015a.12.12,0,0,1,.062.015.122.122,0,0,1,.045.053.271.271,0,0,1,.029.094,1,1,0,0,1,.009.141.484.484,0,0,1-.039.228.117.117,0,0,1-.105.07h-1.015v2.2a1.269,1.269,0,0,0,.12.617.46.46,0,0,0,.433.208.862.862,0,0,0,.18-.019c.053-.014.1-.029.141-.042s.076-.028.1-.042a.2.2,0,0,1,.08-.019.088.088,0,0,1,.042.01.076.076,0,0,1,.03.042.442.442,0,0,1,.02.083.845.845,0,0,1,.009.131m-3.31-5a.478.478,0,0,1-.1.347.52.52,0,0,1-.356.092.508.508,0,0,1-.349-.09.467.467,0,0,1-.094-.34.477.477,0,0,1,.1-.346.515.515,0,0,1,.355-.093.507.507,0,0,1,.349.09.468.468,0,0,1,.095.34m-.083,5.286a.1.1,0,0,1-.018.059.145.145,0,0,1-.057.042.413.413,0,0,1-.109.027,1.542,1.542,0,0,1-.182.009,1.482,1.482,0,0,1-.175-.009.441.441,0,0,1-.111-.027.108.108,0,0,1-.057-.042.1.1,0,0,1-.016-.059v-3.951a.106.106,0,0,1,.016-.057.1.1,0,0,1,.057-.044.434.434,0,0,1,.111-.027,1.326,1.326,0,0,1,.175-.009,1.384,1.384,0,0,1,.182.009.408.408,0,0,1,.109.027.127.127,0,0,1,.057.044.1.1,0,0,1,.018.057Zm-1.686-.6c0,.051,0,.092,0,.131a.541.541,0,0,1-.015.091.287.287,0,0,1-.027.066.4.4,0,0,1-.071.084,1.089,1.089,0,0,1-.186.136,1.738,1.738,0,0,1-.3.143,2.152,2.152,0,0,1-.758.145,1.908,1.908,0,0,1-.753-.141,1.426,1.426,0,0,1-.552-.41,1.872,1.872,0,0,1-.339-.663,3.246,3.246,0,0,1-.115-.907,3.12,3.12,0,0,1,.142-1,1.884,1.884,0,0,1,.391-.686,1.527,1.527,0,0,1,.582-.4,1.984,1.984,0,0,1,.727-.131,1.82,1.82,0,0,1,.366.037,1.9,1.9,0,0,1,.327.092,1.391,1.391,0,0,1,.265.131,1,1,0,0,1,.169.127.442.442,0,0,1,.072.084.225.225,0,0,1,.032.071.451.451,0,0,1,.019.095c0,.034,0,.079,0,.131a.524.524,0,0,1-.039.239.112.112,0,0,1-.1.069.252.252,0,0,1-.152-.071,2.063,2.063,0,0,0-.217-.16,1.6,1.6,0,0,0-.317-.161,1.2,1.2,0,0,0-.443-.073.916.916,0,0,0-.8.4,2.04,2.04,0,0,0-.279,1.165,2.784,2.784,0,0,0,.072.67,1.39,1.39,0,0,0,.213.481.873.873,0,0,0,.345.288,1.1,1.1,0,0,0,.468.095,1.132,1.132,0,0,0,.439-.079,1.858,1.858,0,0,0,.327-.174c.094-.063.17-.12.234-.171a.273.273,0,0,1,.147-.076.093.093,0,0,1,.053.016.132.132,0,0,1,.037.06.418.418,0,0,1,.021.1,1.339,1.339,0,0,1,.007.152m-6.719.6a.1.1,0,0,1-.018.059.133.133,0,0,1-.057.042.41.41,0,0,1-.109.027,1.562,1.562,0,0,1-.182.009,1.483,1.483,0,0,1-.175-.009.42.42,0,0,1-.111-.027.109.109,0,0,1-.057-.042.107.107,0,0,1-.017-.059v-5.865a.118.118,0,0,1,.017-.062.112.112,0,0,1,.057-.045.478.478,0,0,1,.111-.025,1.36,1.36,0,0,1,.175-.009,1.434,1.434,0,0,1,.182.009.467.467,0,0,1,.109.025.138.138,0,0,1,.057.045.105.105,0,0,1,.018.062Zm-2.775-1.8h-.619a2.372,2.372,0,0,0-.518.049,1.1,1.1,0,0,0-.364.149.619.619,0,0,0-.213.237.714.714,0,0,0-.067.318.636.636,0,0,0,.195.49.771.771,0,0,0,.546.183,1.009,1.009,0,0,0,.529-.145,2.245,2.245,0,0,0,.512-.444Zm.721,1.8a.088.088,0,0,1-.036.078.238.238,0,0,1-.1.04.918.918,0,0,1-.18.014.976.976,0,0,1-.182-.014.219.219,0,0,1-.1-.04.093.093,0,0,1-.03-.078v-.4a1.962,1.962,0,0,1-.578.431,1.543,1.543,0,0,1-.673.154,1.783,1.783,0,0,1-.565-.083,1.207,1.207,0,0,1-.43-.234,1.079,1.079,0,0,1-.277-.377,1.27,1.27,0,0,1-.1-.51,1.189,1.189,0,0,1,.135-.58,1.154,1.154,0,0,1,.391-.407,1.9,1.9,0,0,1,.624-.245,3.932,3.932,0,0,1,.83-.08h.544v-.307a1.592,1.592,0,0,0-.048-.4.7.7,0,0,0-.157-.291.679.679,0,0,0-.278-.177,1.322,1.322,0,0,0-.422-.058,1.69,1.69,0,0,0-.481.063,2.634,2.634,0,0,0-.373.141,2.91,2.91,0,0,0-.268.14.371.371,0,0,1-.16.063.115.115,0,0,1-.062-.017.15.15,0,0,1-.047-.054.307.307,0,0,1-.027-.09.663.663,0,0,1-.01-.12.736.736,0,0,1,.017-.174.254.254,0,0,1,.074-.122.931.931,0,0,1,.2-.133,2.337,2.337,0,0,1,.332-.141,3.157,3.157,0,0,1,.414-.1,2.62,2.62,0,0,1,1.176.055,1.171,1.171,0,0,1,.483.283,1.1,1.1,0,0,1,.268.463,2.262,2.262,0,0,1,.084.645Zm-4.83-1.95a3.869,3.869,0,0,0-.045-.589,1.734,1.734,0,0,0-.16-.505.98.98,0,0,0-.3-.352.788.788,0,0,0-.47-.135.952.952,0,0,0-.277.04.981.981,0,0,0-.275.13,1.976,1.976,0,0,0-.293.238,3.265,3.265,0,0,0-.322.364v1.576a2.9,2.9,0,0,0,.571.555.973.973,0,0,0,.565.191.812.812,0,0,0,.465-.131,1,1,0,0,0,.314-.35,1.71,1.71,0,0,0,.176-.487,2.728,2.728,0,0,0,.054-.547m.764-.083a3.522,3.522,0,0,1-.112.924,2.062,2.062,0,0,1-.328.7,1.463,1.463,0,0,1-.534.444,1.654,1.654,0,0,1-.725.154,1.626,1.626,0,0,1-.349-.037,1.3,1.3,0,0,1-.314-.122,1.836,1.836,0,0,1-.307-.21,3.476,3.476,0,0,1-.326-.308v.483a.107.107,0,0,1-.018.062.117.117,0,0,1-.057.042.567.567,0,0,1-.1.024,1.267,1.267,0,0,1-.3,0,.623.623,0,0,1-.1-.024.1.1,0,0,1-.052-.042.137.137,0,0,1-.013-.062v-5.865a.116.116,0,0,1,.016-.062.112.112,0,0,1,.057-.045.5.5,0,0,1,.111-.025,1.358,1.358,0,0,1,.175-.009,1.418,1.418,0,0,1,.182.009.465.465,0,0,1,.109.025.146.146,0,0,1,.058.045.1.1,0,0,1,.018.062v2.366a2.716,2.716,0,0,1,.341-.3,2.011,2.011,0,0,1,.322-.2,1.351,1.351,0,0,1,.315-.11,1.626,1.626,0,0,1,1.069.135,1.428,1.428,0,0,1,.5.46,1.994,1.994,0,0,1,.278.673,3.592,3.592,0,0,1,.088.817m-5.464.057a3.025,3.025,0,0,0-.06-.6,1.5,1.5,0,0,0-.2-.5.98.98,0,0,0-.368-.34,1.208,1.208,0,0,0-.58-.126,1.229,1.229,0,0,0-.552.115.993.993,0,0,0-.38.322,1.432,1.432,0,0,0-.221.495,2.542,2.542,0,0,0-.072.624,3.038,3.038,0,0,0,.059.61,1.416,1.416,0,0,0,.2.5,1,1,0,0,0,.37.339,1.4,1.4,0,0,0,1.129.01,1,1,0,0,0,.382-.32,1.37,1.37,0,0,0,.221-.491,2.654,2.654,0,0,0,.071-.628m.762-.048a2.945,2.945,0,0,1-.127.889,1.959,1.959,0,0,1-.379.7,1.708,1.708,0,0,1-.632.459,2.2,2.2,0,0,1-.88.165,2.3,2.3,0,0,1-.85-.145,1.545,1.545,0,0,1-.6-.422,1.794,1.794,0,0,1-.36-.672,3.1,3.1,0,0,1-.118-.895,3.048,3.048,0,0,1,.124-.889,1.964,1.964,0,0,1,.378-.7,1.706,1.706,0,0,1,.631-.456,2.2,2.2,0,0,1,.881-.163,2.261,2.261,0,0,1,.849.145,1.545,1.545,0,0,1,.6.422,1.808,1.808,0,0,1,.362.671,3.028,3.028,0,0,1,.12.892" transform="translate(-450.799 -137.231)" fill="#fff"/>
    <path id="Path_1430" data-name="Path 1430" d="M863.164,175.108a.338.338,0,0,1-.009.075.84.84,0,0,1-.031.11l-1.163,3.754a.17.17,0,0,1-.122.127.548.548,0,0,1-.138.024c-.058,0-.132.007-.219.007s-.168,0-.23-.009a.761.761,0,0,1-.147-.027.176.176,0,0,1-.081-.048.185.185,0,0,1-.039-.075l-.83-2.867-.009-.039-.009.039-.769,2.867a.192.192,0,0,1-.04.08.2.2,0,0,1-.086.048.692.692,0,0,1-.148.024c-.059,0-.133.007-.221.007s-.164,0-.221-.009a.684.684,0,0,1-.139-.027.153.153,0,0,1-.081-.048.2.2,0,0,1-.04-.075l-1.154-3.754a1.026,1.026,0,0,1-.032-.11.411.411,0,0,1-.009-.075.106.106,0,0,1,.018-.063.122.122,0,0,1,.06-.04.374.374,0,0,1,.111-.02c.048,0,.105,0,.172,0,.082,0,.148,0,.2.007a.461.461,0,0,1,.115.021.115.115,0,0,1,.057.045.335.335,0,0,1,.03.066l.953,3.258.009.039.01-.039.873-3.258a.138.138,0,0,1,.029-.066.115.115,0,0,1,.058-.045.45.45,0,0,1,.108-.021,1.706,1.706,0,0,1,.179-.007,1.621,1.621,0,0,1,.172.007.409.409,0,0,1,.108.021.112.112,0,0,1,.058.042.2.2,0,0,1,.027.061l.944,3.267.009.039,0-.039.939-3.258a.211.211,0,0,1,.028-.066.129.129,0,0,1,.062-.045.5.5,0,0,1,.116-.021,1.845,1.845,0,0,1,.186-.007c.07,0,.128,0,.169,0a.274.274,0,0,1,.1.023.118.118,0,0,1,.053.039.106.106,0,0,1,.016.062m-7.323,1.988a3.025,3.025,0,0,0-.06-.6,1.5,1.5,0,0,0-.195-.5.982.982,0,0,0-.369-.34,1.206,1.206,0,0,0-.58-.126,1.233,1.233,0,0,0-.551.115,1,1,0,0,0-.379.322,1.452,1.452,0,0,0-.222.495,2.553,2.553,0,0,0-.071.624,3.038,3.038,0,0,0,.059.61,1.4,1.4,0,0,0,.2.5.991.991,0,0,0,.37.339,1.4,1.4,0,0,0,1.128.01,1,1,0,0,0,.383-.32,1.373,1.373,0,0,0,.22-.491,2.6,2.6,0,0,0,.071-.628m.763-.048a2.949,2.949,0,0,1-.127.889,1.959,1.959,0,0,1-.38.7,1.71,1.71,0,0,1-.633.459,2.2,2.2,0,0,1-.879.165,2.3,2.3,0,0,1-.85-.145,1.548,1.548,0,0,1-.6-.422,1.8,1.8,0,0,1-.359-.672,3.093,3.093,0,0,1-.119-.895,3.019,3.019,0,0,1,.124-.889,1.964,1.964,0,0,1,.378-.7,1.7,1.7,0,0,1,.631-.456,2.192,2.192,0,0,1,.881-.163,2.262,2.262,0,0,1,.85.145,1.544,1.544,0,0,1,.6.422,1.815,1.815,0,0,1,.362.671,3.025,3.025,0,0,1,.12.892m-4.355-1.672c0,.064,0,.118,0,.161a.475.475,0,0,1-.017.1.183.183,0,0,1-.032.057.074.074,0,0,1-.056.019.221.221,0,0,1-.085-.019c-.035-.014-.072-.025-.114-.039s-.089-.025-.142-.037a.776.776,0,0,0-.172-.019.543.543,0,0,0-.215.045.79.79,0,0,0-.222.144,1.852,1.852,0,0,0-.244.268c-.085.111-.179.247-.281.408v2.6a.094.094,0,0,1-.018.059.141.141,0,0,1-.057.042.407.407,0,0,1-.109.027,1.532,1.532,0,0,1-.182.009,1.474,1.474,0,0,1-.175-.009.438.438,0,0,1-.111-.027.108.108,0,0,1-.057-.042.1.1,0,0,1-.016-.059v-3.951a.121.121,0,0,1,.013-.06.142.142,0,0,1,.053-.044.314.314,0,0,1,.1-.025,1.394,1.394,0,0,1,.162-.007,1.414,1.414,0,0,1,.161.007.279.279,0,0,1,.1.025.178.178,0,0,1,.051.044.121.121,0,0,1,.015.06v.575a3.132,3.132,0,0,1,.3-.386,1.732,1.732,0,0,1,.272-.235.8.8,0,0,1,.251-.118,1.025,1.025,0,0,1,.252-.033c.039,0,.082,0,.13.007a1.227,1.227,0,0,1,.152.024,1.208,1.208,0,0,1,.143.039.333.333,0,0,1,.089.043.134.134,0,0,1,.036.042.261.261,0,0,1,.015.051.449.449,0,0,1,.009.09c0,.039,0,.092,0,.16m-3.134,0c0,.064,0,.118,0,.161a.506.506,0,0,1-.016.1.171.171,0,0,1-.033.057.072.072,0,0,1-.055.019.226.226,0,0,1-.086-.019c-.034-.014-.071-.025-.114-.039s-.09-.025-.142-.037a.777.777,0,0,0-.173-.019.539.539,0,0,0-.214.045.8.8,0,0,0-.222.144,1.862,1.862,0,0,0-.244.268c-.083.111-.178.247-.28.408v2.6a.1.1,0,0,1-.018.059.139.139,0,0,1-.057.042.407.407,0,0,1-.109.027,1.535,1.535,0,0,1-.181.009,1.493,1.493,0,0,1-.176-.009.419.419,0,0,1-.11-.027.106.106,0,0,1-.057-.042.107.107,0,0,1-.017-.059v-3.951a.122.122,0,0,1,.014-.06.136.136,0,0,1,.053-.044.308.308,0,0,1,.1-.025,1.784,1.784,0,0,1,.322,0,.272.272,0,0,1,.1.025.172.172,0,0,1,.051.044.122.122,0,0,1,.016.06v.575a3.031,3.031,0,0,1,.3-.386,1.729,1.729,0,0,1,.271-.235.807.807,0,0,1,.252-.118,1.026,1.026,0,0,1,.251-.033c.039,0,.083,0,.131.007a1.2,1.2,0,0,1,.151.024,1.218,1.218,0,0,1,.143.039.331.331,0,0,1,.09.043.13.13,0,0,1,.035.042.248.248,0,0,1,.016.051.663.663,0,0,1,.009.09c0,.039,0,.092,0,.16m-4.139,1.72a3.021,3.021,0,0,0-.06-.6,1.5,1.5,0,0,0-.195-.5.981.981,0,0,0-.369-.34,1.206,1.206,0,0,0-.58-.126,1.23,1.23,0,0,0-.551.115.994.994,0,0,0-.379.322,1.432,1.432,0,0,0-.222.495,2.553,2.553,0,0,0-.071.624,3.033,3.033,0,0,0,.059.61,1.416,1.416,0,0,0,.2.5,1,1,0,0,0,.371.339,1.4,1.4,0,0,0,1.128.01,1,1,0,0,0,.382-.32,1.362,1.362,0,0,0,.22-.491,2.608,2.608,0,0,0,.07-.628m.762-.048a2.943,2.943,0,0,1-.127.889,1.957,1.957,0,0,1-.38.7,1.71,1.71,0,0,1-.633.459,2.2,2.2,0,0,1-.88.165,2.294,2.294,0,0,1-.849-.145,1.544,1.544,0,0,1-.6-.422,1.805,1.805,0,0,1-.359-.672,3.1,3.1,0,0,1-.119-.895,3.025,3.025,0,0,1,.124-.889,1.963,1.963,0,0,1,.378-.7,1.7,1.7,0,0,1,.631-.456,2.192,2.192,0,0,1,.881-.163,2.264,2.264,0,0,1,.85.145,1.544,1.544,0,0,1,.6.422,1.81,1.81,0,0,1,.363.671,3.063,3.063,0,0,1,.119.892m-5,2.019a.1.1,0,0,1-.016.059.143.143,0,0,1-.057.042.421.421,0,0,1-.111.027,1.448,1.448,0,0,1-.175.009,1.485,1.485,0,0,1-.18-.009.458.458,0,0,1-.113-.027.14.14,0,0,1-.059-.042.1.1,0,0,1-.018-.059v-2.4a2.2,2.2,0,0,0-.044-.455,1.071,1.071,0,0,0-.14-.357.667.667,0,0,0-.246-.228.75.75,0,0,0-.351-.08.824.824,0,0,0-.5.194,3.446,3.446,0,0,0-.555.566v2.761a.094.094,0,0,1-.018.059.135.135,0,0,1-.06.042.429.429,0,0,1-.111.027,1.489,1.489,0,0,1-.177.009,1.437,1.437,0,0,1-.172-.009.452.452,0,0,1-.116-.027.125.125,0,0,1-.057-.042.12.12,0,0,1-.014-.059v-2.4a2.066,2.066,0,0,0-.048-.455,1.163,1.163,0,0,0-.146-.357.662.662,0,0,0-.242-.228.74.74,0,0,0-.349-.08.834.834,0,0,0-.505.194,3.323,3.323,0,0,0-.552.566v2.761a.1.1,0,0,1-.019.059.133.133,0,0,1-.057.042.409.409,0,0,1-.109.027,1.555,1.555,0,0,1-.182.009,1.479,1.479,0,0,1-.175-.009.421.421,0,0,1-.111-.027.109.109,0,0,1-.057-.042.105.105,0,0,1-.017-.059v-3.951a.121.121,0,0,1,.014-.06.135.135,0,0,1,.053-.044.308.308,0,0,1,.1-.025,1.793,1.793,0,0,1,.323,0,.285.285,0,0,1,.1.025.19.19,0,0,1,.051.044.131.131,0,0,1,.015.06v.523a2.554,2.554,0,0,1,.647-.547,1.307,1.307,0,0,1,.634-.174,1.611,1.611,0,0,1,.442.057,1.218,1.218,0,0,1,.345.161,1.113,1.113,0,0,1,.255.246,1.488,1.488,0,0,1,.175.319,4.077,4.077,0,0,1,.375-.363,2.208,2.208,0,0,1,.343-.243,1.391,1.391,0,0,1,.321-.133,1.178,1.178,0,0,1,.313-.042,1.379,1.379,0,0,1,.641.135,1.163,1.163,0,0,1,.419.356,1.443,1.443,0,0,1,.228.525,2.86,2.86,0,0,1,.067.635Zm-7.69-1.971a3,3,0,0,0-.06-.6,1.5,1.5,0,0,0-.194-.5.988.988,0,0,0-.368-.34,1.211,1.211,0,0,0-.581-.126,1.233,1.233,0,0,0-.551.115,1,1,0,0,0-.379.322,1.431,1.431,0,0,0-.221.495,2.5,2.5,0,0,0-.072.624,3.051,3.051,0,0,0,.058.61,1.407,1.407,0,0,0,.2.5.993.993,0,0,0,.37.339,1.4,1.4,0,0,0,1.129.01,1.007,1.007,0,0,0,.382-.32,1.356,1.356,0,0,0,.22-.491,2.6,2.6,0,0,0,.071-.628m.763-.048a2.947,2.947,0,0,1-.127.889,1.961,1.961,0,0,1-.379.7,1.716,1.716,0,0,1-.632.459,2.208,2.208,0,0,1-.88.165,2.3,2.3,0,0,1-.85-.145,1.549,1.549,0,0,1-.6-.422,1.808,1.808,0,0,1-.359-.672,3.1,3.1,0,0,1-.118-.895,3.027,3.027,0,0,1,.124-.889,1.964,1.964,0,0,1,.378-.7,1.7,1.7,0,0,1,.631-.456,2.192,2.192,0,0,1,.881-.163,2.263,2.263,0,0,1,.85.145,1.547,1.547,0,0,1,.6.422,1.822,1.822,0,0,1,.362.671,3.026,3.026,0,0,1,.12.892m-4.544,1.729a1.084,1.084,0,0,1-.016.2.218.218,0,0,1-.054.11.32.32,0,0,1-.1.066.842.842,0,0,1-.161.051c-.06.013-.122.023-.191.032a1.669,1.669,0,0,1-.73-.067.875.875,0,0,1-.359-.246,1.026,1.026,0,0,1-.2-.418,2.47,2.47,0,0,1-.063-.6V175.6h-.554a.117.117,0,0,1-.105-.07.484.484,0,0,1-.039-.228.782.782,0,0,1,.01-.141.405.405,0,0,1,.028-.094.115.115,0,0,1,.046-.053.131.131,0,0,1,.063-.015h.55v-.94a.107.107,0,0,1,.015-.057.126.126,0,0,1,.057-.047.377.377,0,0,1,.112-.028,1.5,1.5,0,0,1,.176-.009,1.532,1.532,0,0,1,.179.009.354.354,0,0,1,.109.028.14.14,0,0,1,.057.047.1.1,0,0,1,.019.057V175h1.014a.126.126,0,0,1,.062.015.136.136,0,0,1,.045.053.287.287,0,0,1,.028.094.973.973,0,0,1,.009.141.485.485,0,0,1-.039.228.117.117,0,0,1-.1.07h-1.014v2.2a1.262,1.262,0,0,0,.12.617.459.459,0,0,0,.433.208.849.849,0,0,0,.179-.019c.052-.014.1-.029.141-.042a1.056,1.056,0,0,0,.1-.042.2.2,0,0,1,.08-.019.086.086,0,0,1,.042.01.07.07,0,0,1,.03.042.429.429,0,0,1,.019.083.827.827,0,0,1,.009.131m-5.172-5.285a.7.7,0,0,1-.01.133.613.613,0,0,1-.019.083.078.078,0,0,1-.028.04.085.085,0,0,1-.045.012.221.221,0,0,1-.076-.02c-.031-.014-.067-.028-.113-.045a1.46,1.46,0,0,0-.156-.043.944.944,0,0,0-.208-.02.682.682,0,0,0-.277.052.435.435,0,0,0-.184.165.825.825,0,0,0-.1.289,2.525,2.525,0,0,0-.03.433V175h.882a.111.111,0,0,1,.06.015.14.14,0,0,1,.043.053.331.331,0,0,1,.032.094.787.787,0,0,1,.011.141.507.507,0,0,1-.039.228.117.117,0,0,1-.106.07h-.882v3.464a.1.1,0,0,1-.018.059.137.137,0,0,1-.06.042.418.418,0,0,1-.11.027,1.51,1.51,0,0,1-.178.009,1.457,1.457,0,0,1-.175-.009.471.471,0,0,1-.113-.027.129.129,0,0,1-.057-.042.094.094,0,0,1-.019-.059V175.6h-.557a.109.109,0,0,1-.1-.07.527.527,0,0,1-.036-.228.982.982,0,0,1,.009-.141.367.367,0,0,1,.027-.094.116.116,0,0,1,.043-.053.121.121,0,0,1,.062-.015h.557v-.41a2.911,2.911,0,0,1,.076-.709,1.234,1.234,0,0,1,.236-.484.964.964,0,0,1,.4-.28,1.609,1.609,0,0,1,.565-.09,1.645,1.645,0,0,1,.3.028,1.276,1.276,0,0,1,.223.062.316.316,0,0,1,.106.06.223.223,0,0,1,.044.067.365.365,0,0,1,.023.1,1.138,1.138,0,0,1,.008.143" transform="translate(-650.9 -137.11)" fill="#fff"/>
  </g>
</svg>
